<?xml version="1.0" encoding="utf-8" standalone="no"?>
<!DOCTYPE svg PUBLIC "-//W3C//DTD SVG 1.1//EN"
  "http://www.w3.org/Graphics/SVG/1.1/DTD/svg11.dtd">
<svg xmlns:xlink="http://www.w3.org/1999/xlink" width="907.17768pt" height="516.160352pt" viewBox="0 0 907.17768 516.160352" xmlns="http://www.w3.org/2000/svg" version="1.1">
 <metadata>
  <rdf:RDF xmlns:dc="http://purl.org/dc/elements/1.1/" xmlns:cc="http://creativecommons.org/ns#" xmlns:rdf="http://www.w3.org/1999/02/22-rdf-syntax-ns#">
   <cc:Work>
    <dc:type rdf:resource="http://purl.org/dc/dcmitype/StillImage"/>
    <dc:date>2026-08-21T19:20:02.538120</dc:date>
    <dc:format>image/svg+xml</dc:format>
    <dc:creator>
     <cc:Agent>
      <dc:title>Matplotlib v3.11.0, https://matplotlib.org/</dc:title>
     </cc:Agent>
    </dc:creator>
   </cc:Work>
  </rdf:RDF>
 </metadata>
 <defs>
  <style type="text/css">*{stroke-linejoin: round; stroke-linecap: butt}</style>
 </defs>
 <g id="figure_1">
  <g id="patch_1">
   <path d="M 0 516.160352 
L 907.17768 516.160352 
L 907.17768 0 
L 0 0 
z
" style="fill: #ffffff"/>
  </g>
  <g id="axes_1">
   <g id="patch_2">
    <path d="M 31.304997 311.041656 
L 161.650539 311.041656 
Q 183.969981 311.041656 183.969981 301.591656 
L 183.969981 212.383656 
Q 183.969981 202.933656 161.650539 202.933656 
L 31.304997 202.933656 
Q 8.985555 202.933656 8.985555 212.383656 
L 8.985555 301.591656 
Q 8.985555 311.041656 31.304997 311.041656 
z
" clip-path="url(#p37743df068)" style="fill: #f8fafc; stroke: #1877f2; stroke-width: 2; stroke-linejoin: miter"/>
   </g>
   <g id="patch_3">
    <path d="M 174.366409 256.987656 
Q 183.525384 256.987656 190.783702 256.987656 
" clip-path="url(#p37743df068)" style="fill: none; stroke: #8798ad; stroke-width: 1.7; stroke-linecap: round"/>
    <path d="M 184.783702 253.987656 
L 190.783702 256.987656 
L 184.783702 259.987656 
z
" clip-path="url(#p37743df068)" style="fill: #8798ad; stroke: #8798ad; stroke-width: 1.7; stroke-linecap: round"/>
   </g>
   <g id="patch_4">
    <path d="M 205.396645 311.041656 
L 335.742186 311.041656 
Q 358.061628 311.041656 358.061628 301.591656 
L 358.061628 212.383656 
Q 358.061628 202.933656 335.742186 202.933656 
L 205.396645 202.933656 
Q 183.077203 202.933656 183.077203 212.383656 
L 183.077203 301.591656 
Q 183.077203 311.041656 205.396645 311.041656 
z
" clip-path="url(#p37743df068)" style="fill: #f8fafc; stroke: #00a6a6; stroke-width: 2; stroke-linejoin: miter"/>
   </g>
   <g id="patch_5">
    <path d="M 348.458056 256.987656 
Q 357.617032 256.987656 364.875349 256.987656 
" clip-path="url(#p37743df068)" style="fill: none; stroke: #8798ad; stroke-width: 1.7; stroke-linecap: round"/>
    <path d="M 358.875349 253.987656 
L 364.875349 256.987656 
L 358.875349 259.987656 
z
" clip-path="url(#p37743df068)" style="fill: #8798ad; stroke: #8798ad; stroke-width: 1.7; stroke-linecap: round"/>
   </g>
   <g id="patch_6">
    <path d="M 379.488293 311.041656 
L 509.833834 311.041656 
Q 532.153276 311.041656 532.153276 301.591656 
L 532.153276 212.383656 
Q 532.153276 202.933656 509.833834 202.933656 
L 379.488293 202.933656 
Q 357.168851 202.933656 357.168851 212.383656 
L 357.168851 301.591656 
Q 357.168851 311.041656 379.488293 311.041656 
z
" clip-path="url(#p37743df068)" style="fill: #f8fafc; stroke: #7457d5; stroke-width: 2; stroke-linejoin: miter"/>
   </g>
   <g id="patch_7">
    <path d="M 522.549704 256.987656 
Q 531.708679 256.987656 538.966997 256.987656 
" clip-path="url(#p37743df068)" style="fill: none; stroke: #8798ad; stroke-width: 1.7; stroke-linecap: round"/>
    <path d="M 532.966997 253.987656 
L 538.966997 256.987656 
L 532.966997 259.987656 
z
" clip-path="url(#p37743df068)" style="fill: #8798ad; stroke: #8798ad; stroke-width: 1.7; stroke-linecap: round"/>
   </g>
   <g id="patch_8">
    <path d="M 553.57994 311.041656 
L 683.925481 311.041656 
Q 706.244923 311.041656 706.244923 301.591656 
L 706.244923 212.383656 
Q 706.244923 202.933656 683.925481 202.933656 
L 553.57994 202.933656 
Q 531.260498 202.933656 531.260498 212.383656 
L 531.260498 301.591656 
Q 531.260498 311.041656 553.57994 311.041656 
z
" clip-path="url(#p37743df068)" style="fill: #f8fafc; stroke: #f4b400; stroke-width: 2; stroke-linejoin: miter"/>
   </g>
   <g id="patch_9">
    <path d="M 696.641351 256.987656 
Q 705.800327 256.987656 713.058645 256.987656 
" clip-path="url(#p37743df068)" style="fill: none; stroke: #8798ad; stroke-width: 1.7; stroke-linecap: round"/>
    <path d="M 707.058645 253.987656 
L 713.058645 256.987656 
L 707.058645 259.987656 
z
" clip-path="url(#p37743df068)" style="fill: #8798ad; stroke: #8798ad; stroke-width: 1.7; stroke-linecap: round"/>
   </g>
   <g id="patch_10">
    <path d="M 727.671588 311.041656 
L 858.017129 311.041656 
Q 880.336571 311.041656 880.336571 301.591656 
L 880.336571 212.383656 
Q 880.336571 202.933656 858.017129 202.933656 
L 727.671588 202.933656 
Q 705.352146 202.933656 705.352146 212.383656 
L 705.352146 301.591656 
Q 705.352146 311.041656 727.671588 311.041656 
z
" clip-path="url(#p37743df068)" style="fill: #f8fafc; stroke: #22a06b; stroke-width: 2; stroke-linejoin: miter"/>
   </g>
   <g id="patch_11">
    <path d="M 174.149426 458.461656 
L 384.844959 458.461656 
Q 407.164401 458.461656 407.164401 449.011656 
L 407.164401 378.703656 
Q 407.164401 369.253656 384.844959 369.253656 
L 174.149426 369.253656 
Q 151.829984 369.253656 151.829984 378.703656 
L 151.829984 449.011656 
Q 151.829984 458.461656 174.149426 458.461656 
z
" clip-path="url(#p37743df068)" style="fill: #f8fafc; stroke: #1877f2; stroke-width: 2; stroke-linejoin: miter"/>
   </g>
   <g id="patch_12">
    <path d="M 522.332721 458.461656 
L 733.028254 458.461656 
Q 755.347696 458.461656 755.347696 449.011656 
L 755.347696 378.703656 
Q 755.347696 369.253656 733.028254 369.253656 
L 522.332721 369.253656 
Q 500.013279 369.253656 500.013279 378.703656 
L 500.013279 449.011656 
Q 500.013279 458.461656 522.332721 458.461656 
z
" clip-path="url(#p37743df068)" style="fill: #f8fafc; stroke: #7457d5; stroke-width: 2; stroke-linejoin: miter"/>
   </g>
   <g id="patch_13">
    <path d="M 791.508832 309.507294 
Q 728.228845 379.49999 636.14238 372.586164 
" clip-path="url(#p37743df068)" style="fill: none; stroke: #22a06b; stroke-width: 1.8; stroke-linecap: round"/>
    <path d="M 641.900933 376.026959 
L 636.14238 372.586164 
L 642.350147 370.043798 
z
" clip-path="url(#p37743df068)" style="fill: #22a06b; stroke: #22a06b; stroke-width: 1.8; stroke-linecap: round"/>
   </g>
   <g id="patch_14">
    <path d="M 514.08074 413.857656 
Q 453.587811 413.857656 394.771933 413.857656 
" clip-path="url(#p37743df068)" style="fill: none; stroke: #8798ad; stroke-width: 1.5; stroke-linecap: round"/>
    <path d="M 400.771933 416.857656 
L 394.771933 413.857656 
L 400.771933 410.857656 
z
" clip-path="url(#p37743df068)" style="fill: #8798ad; stroke: #8798ad; stroke-width: 1.5; stroke-linecap: round"/>
   </g>
   <g id="patch_15">
    <path d="M 166.216572 412.771033 
Q 109.384777 375.685709 93.002565 311.906644 
" clip-path="url(#p37743df068)" style="fill: none; stroke: #1877f2; stroke-width: 1.8; stroke-linecap: round"/>
    <path d="M 91.589585 318.464349 
L 93.002565 311.906644 
L 97.400941 316.971651 
z
" clip-path="url(#p37743df068)" style="fill: #1877f2; stroke: #1877f2; stroke-width: 1.8; stroke-linecap: round"/>
   </g>
   <g id="text_1">
    <!-- TRAFFIC + EVENTS -->
    <g style="fill: #0b1f33" transform="translate(40.765424 246.485195) scale(0.105 -0.105)">
     <defs>
      <path id="DejaVuSans-Bold-37" d="M 31 4666 
L 4331 4666 
L 4331 3756 
L 2784 3756 
L 2784 0 
L 1581 0 
L 1581 3756 
L 31 3756 
L 31 4666 
z
" transform="scale(0.015625)"/>
      <path id="DejaVuSans-Bold-35" d="M 2297 2597 
Q 2675 2597 2839 2737 
Q 3003 2878 3003 3200 
Q 3003 3519 2839 3656 
Q 2675 3794 2297 3794 
L 1791 3794 
L 1791 2597 
L 2297 2597 
z
M 1791 1766 
L 1791 0 
L 588 0 
L 588 4666 
L 2425 4666 
Q 3347 4666 3776 4356 
Q 4206 4047 4206 3378 
Q 4206 2916 3982 2619 
Q 3759 2322 3309 2181 
Q 3556 2125 3751 1926 
Q 3947 1728 4147 1325 
L 4800 0 
L 3519 0 
L 2950 1159 
Q 2778 1509 2601 1637 
Q 2425 1766 2131 1766 
L 1791 1766 
z
" transform="scale(0.015625)"/>
      <path id="DejaVuSans-Bold-24" d="M 3419 850 
L 1538 850 
L 1241 0 
L 31 0 
L 1759 4666 
L 3194 4666 
L 4922 0 
L 3713 0 
L 3419 850 
z
M 1838 1716 
L 3116 1716 
L 2478 3572 
L 1838 1716 
z
" transform="scale(0.015625)"/>
      <path id="DejaVuSans-Bold-29" d="M 588 4666 
L 3834 4666 
L 3834 3756 
L 1791 3756 
L 1791 2888 
L 3713 2888 
L 3713 1978 
L 1791 1978 
L 1791 0 
L 588 0 
L 588 4666 
z
" transform="scale(0.015625)"/>
      <path id="DejaVuSans-Bold-2c" d="M 588 4666 
L 1791 4666 
L 1791 0 
L 588 0 
L 588 4666 
z
" transform="scale(0.015625)"/>
      <path id="DejaVuSans-Bold-26" d="M 4288 256 
Q 3956 84 3597 -3 
Q 3238 -91 2847 -91 
Q 1681 -91 1000 561 
Q 319 1213 319 2328 
Q 319 3447 1000 4098 
Q 1681 4750 2847 4750 
Q 3238 4750 3597 4662 
Q 3956 4575 4288 4403 
L 4288 3438 
Q 3953 3666 3628 3772 
Q 3303 3878 2944 3878 
Q 2300 3878 1931 3465 
Q 1563 3053 1563 2328 
Q 1563 1606 1931 1193 
Q 2300 781 2944 781 
Q 3303 781 3628 887 
Q 3953 994 4288 1222 
L 4288 256 
z
" transform="scale(0.015625)"/>
      <path id="DejaVuSans-Bold-3" transform="scale(0.015625)"/>
      <path id="DejaVuSans-Bold-e" d="M 3053 4013 
L 3053 2375 
L 4684 2375 
L 4684 1638 
L 3053 1638 
L 3053 0 
L 2309 0 
L 2309 1638 
L 678 1638 
L 678 2375 
L 2309 2375 
L 2309 4013 
L 3053 4013 
z
" transform="scale(0.015625)"/>
      <path id="DejaVuSans-Bold-28" d="M 588 4666 
L 3834 4666 
L 3834 3756 
L 1791 3756 
L 1791 2888 
L 3713 2888 
L 3713 1978 
L 1791 1978 
L 1791 909 
L 3903 909 
L 3903 0 
L 588 0 
L 588 4666 
z
" transform="scale(0.015625)"/>
      <path id="DejaVuSans-Bold-39" d="M 31 4666 
L 1241 4666 
L 2478 1222 
L 3713 4666 
L 4922 4666 
L 3194 0 
L 1759 0 
L 31 4666 
z
" transform="scale(0.015625)"/>
      <path id="DejaVuSans-Bold-31" d="M 588 4666 
L 1931 4666 
L 3628 1466 
L 3628 4666 
L 4769 4666 
L 4769 0 
L 3425 0 
L 1728 3200 
L 1728 0 
L 588 0 
L 588 4666 
z
" transform="scale(0.015625)"/>
      <path id="DejaVuSans-Bold-36" d="M 3834 4519 
L 3834 3531 
Q 3450 3703 3084 3790 
Q 2719 3878 2394 3878 
Q 1963 3878 1756 3759 
Q 1550 3641 1550 3391 
Q 1550 3203 1689 3098 
Q 1828 2994 2194 2919 
L 2706 2816 
Q 3484 2659 3812 2340 
Q 4141 2022 4141 1434 
Q 4141 663 3683 286 
Q 3225 -91 2284 -91 
Q 1841 -91 1394 -6 
Q 947 78 500 244 
L 500 1259 
Q 947 1022 1364 901 
Q 1781 781 2169 781 
Q 2563 781 2772 912 
Q 2981 1044 2981 1288 
Q 2981 1506 2839 1625 
Q 2697 1744 2272 1838 
L 1806 1941 
Q 1106 2091 782 2419 
Q 459 2747 459 3303 
Q 459 4000 909 4375 
Q 1359 4750 2203 4750 
Q 2588 4750 2994 4692 
Q 3400 4634 3834 4519 
z
" transform="scale(0.015625)"/>
     </defs>
     <use xlink:href="#DejaVuSans-Bold-37"/>
     <use xlink:href="#DejaVuSans-Bold-35" transform="translate(68.21875 0)"/>
     <use xlink:href="#DejaVuSans-Bold-24" transform="translate(145.21875 0)"/>
     <use xlink:href="#DejaVuSans-Bold-29" transform="translate(222.609375 0)"/>
     <use xlink:href="#DejaVuSans-Bold-29" transform="translate(290.921875 0)"/>
     <use xlink:href="#DejaVuSans-Bold-2c" transform="translate(359.234375 0)"/>
     <use xlink:href="#DejaVuSans-Bold-26" transform="translate(396.4375 0)"/>
     <use xlink:href="#DejaVuSans-Bold-3" transform="translate(469.828125 0)"/>
     <use xlink:href="#DejaVuSans-Bold-e" transform="translate(504.640625 0)"/>
     <use xlink:href="#DejaVuSans-Bold-3" transform="translate(588.4375 0)"/>
     <use xlink:href="#DejaVuSans-Bold-28" transform="translate(623.25 0)"/>
     <use xlink:href="#DejaVuSans-Bold-39" transform="translate(691.5625 0)"/>
     <use xlink:href="#DejaVuSans-Bold-28" transform="translate(768.953125 0)"/>
     <use xlink:href="#DejaVuSans-Bold-31" transform="translate(837.265625 0)"/>
     <use xlink:href="#DejaVuSans-Bold-37" transform="translate(920.953125 0)"/>
     <use xlink:href="#DejaVuSans-Bold-36" transform="translate(989.171875 0)"/>
    </g>
   </g>
   <g id="text_2">
    <!-- service × hour arrivals -->
    <g style="fill: #66788a" transform="translate(49.322096 273.587) scale(0.083 -0.083)">
     <defs>
      <path id="DejaVuSans-56" d="M 2834 3397 
L 2834 2853 
Q 2591 2978 2328 3040 
Q 2066 3103 1784 3103 
Q 1356 3103 1142 2972 
Q 928 2841 928 2578 
Q 928 2378 1081 2264 
Q 1234 2150 1697 2047 
L 1894 2003 
Q 2506 1872 2764 1633 
Q 3022 1394 3022 966 
Q 3022 478 2636 193 
Q 2250 -91 1575 -91 
Q 1294 -91 989 -36 
Q 684 19 347 128 
L 347 722 
Q 666 556 975 473 
Q 1284 391 1588 391 
Q 1994 391 2212 530 
Q 2431 669 2431 922 
Q 2431 1156 2273 1281 
Q 2116 1406 1581 1522 
L 1381 1569 
Q 847 1681 609 1914 
Q 372 2147 372 2553 
Q 372 3047 722 3315 
Q 1072 3584 1716 3584 
Q 2034 3584 2315 3537 
Q 2597 3491 2834 3397 
z
" transform="scale(0.015625)"/>
      <path id="DejaVuSans-48" d="M 3597 1894 
L 3597 1613 
L 953 1613 
Q 991 1019 1311 708 
Q 1631 397 2203 397 
Q 2534 397 2845 478 
Q 3156 559 3463 722 
L 3463 178 
Q 3153 47 2828 -22 
Q 2503 -91 2169 -91 
Q 1331 -91 842 396 
Q 353 884 353 1716 
Q 353 2575 817 3079 
Q 1281 3584 2069 3584 
Q 2775 3584 3186 3129 
Q 3597 2675 3597 1894 
z
M 3022 2063 
Q 3016 2534 2758 2815 
Q 2500 3097 2075 3097 
Q 1594 3097 1305 2825 
Q 1016 2553 972 2059 
L 3022 2063 
z
" transform="scale(0.015625)"/>
      <path id="DejaVuSans-55" d="M 2631 2963 
Q 2534 3019 2420 3045 
Q 2306 3072 2169 3072 
Q 1681 3072 1420 2755 
Q 1159 2438 1159 1844 
L 1159 0 
L 581 0 
L 581 3500 
L 1159 3500 
L 1159 2956 
Q 1341 3275 1631 3429 
Q 1922 3584 2338 3584 
Q 2397 3584 2469 3576 
Q 2541 3569 2628 3553 
L 2631 2963 
z
" transform="scale(0.015625)"/>
      <path id="DejaVuSans-59" d="M 191 3500 
L 800 3500 
L 1894 563 
L 2988 3500 
L 3597 3500 
L 2284 0 
L 1503 0 
L 191 3500 
z
" transform="scale(0.015625)"/>
      <path id="DejaVuSans-4c" d="M 603 3500 
L 1178 3500 
L 1178 0 
L 603 0 
L 603 3500 
z
M 603 4863 
L 1178 4863 
L 1178 4134 
L 603 4134 
L 603 4863 
z
" transform="scale(0.015625)"/>
      <path id="DejaVuSans-46" d="M 3122 3366 
L 3122 2828 
Q 2878 2963 2633 3030 
Q 2388 3097 2138 3097 
Q 1578 3097 1268 2742 
Q 959 2388 959 1747 
Q 959 1106 1268 751 
Q 1578 397 2138 397 
Q 2388 397 2633 464 
Q 2878 531 3122 666 
L 3122 134 
Q 2881 22 2623 -34 
Q 2366 -91 2075 -91 
Q 1284 -91 818 406 
Q 353 903 353 1747 
Q 353 2603 823 3093 
Q 1294 3584 2113 3584 
Q 2378 3584 2631 3529 
Q 2884 3475 3122 3366 
z
" transform="scale(0.015625)"/>
      <path id="DejaVuSans-3" transform="scale(0.015625)"/>
      <path id="DejaVuSans-99" d="M 4488 3438 
L 3059 2003 
L 4488 575 
L 4116 197 
L 2681 1631 
L 1247 197 
L 878 575 
L 2303 2003 
L 878 3438 
L 1247 3816 
L 2681 2381 
L 4116 3816 
L 4488 3438 
z
" transform="scale(0.015625)"/>
      <path id="DejaVuSans-4b" d="M 3513 2113 
L 3513 0 
L 2938 0 
L 2938 2094 
Q 2938 2591 2744 2837 
Q 2550 3084 2163 3084 
Q 1697 3084 1428 2787 
Q 1159 2491 1159 1978 
L 1159 0 
L 581 0 
L 581 4863 
L 1159 4863 
L 1159 2956 
Q 1366 3272 1645 3428 
Q 1925 3584 2291 3584 
Q 2894 3584 3203 3211 
Q 3513 2838 3513 2113 
z
" transform="scale(0.015625)"/>
      <path id="DejaVuSans-52" d="M 1959 3097 
Q 1497 3097 1228 2736 
Q 959 2375 959 1747 
Q 959 1119 1226 758 
Q 1494 397 1959 397 
Q 2419 397 2687 759 
Q 2956 1122 2956 1747 
Q 2956 2369 2687 2733 
Q 2419 3097 1959 3097 
z
M 1959 3584 
Q 2709 3584 3137 3096 
Q 3566 2609 3566 1747 
Q 3566 888 3137 398 
Q 2709 -91 1959 -91 
Q 1206 -91 779 398 
Q 353 888 353 1747 
Q 353 2609 779 3096 
Q 1206 3584 1959 3584 
z
" transform="scale(0.015625)"/>
      <path id="DejaVuSans-58" d="M 544 1381 
L 544 3500 
L 1119 3500 
L 1119 1403 
Q 1119 906 1312 657 
Q 1506 409 1894 409 
Q 2359 409 2629 706 
Q 2900 1003 2900 1516 
L 2900 3500 
L 3475 3500 
L 3475 0 
L 2900 0 
L 2900 538 
Q 2691 219 2414 64 
Q 2138 -91 1772 -91 
Q 1169 -91 856 284 
Q 544 659 544 1381 
z
M 1991 3584 
L 1991 3584 
z
" transform="scale(0.015625)"/>
      <path id="DejaVuSans-44" d="M 2194 1759 
Q 1497 1759 1228 1600 
Q 959 1441 959 1056 
Q 959 750 1161 570 
Q 1363 391 1709 391 
Q 2188 391 2477 730 
Q 2766 1069 2766 1631 
L 2766 1759 
L 2194 1759 
z
M 3341 1997 
L 3341 0 
L 2766 0 
L 2766 531 
Q 2569 213 2275 61 
Q 1981 -91 1556 -91 
Q 1019 -91 701 211 
Q 384 513 384 1019 
Q 384 1609 779 1909 
Q 1175 2209 1959 2209 
L 2766 2209 
L 2766 2266 
Q 2766 2663 2505 2880 
Q 2244 3097 1772 3097 
Q 1472 3097 1187 3025 
Q 903 2953 641 2809 
L 641 3341 
Q 956 3463 1253 3523 
Q 1550 3584 1831 3584 
Q 2591 3584 2966 3190 
Q 3341 2797 3341 1997 
z
" transform="scale(0.015625)"/>
      <path id="DejaVuSans-4f" d="M 603 4863 
L 1178 4863 
L 1178 0 
L 603 0 
L 603 4863 
z
" transform="scale(0.015625)"/>
     </defs>
     <use xlink:href="#DejaVuSans-56"/>
     <use xlink:href="#DejaVuSans-48" transform="translate(52.09375 0)"/>
     <use xlink:href="#DejaVuSans-55" transform="translate(113.625 0)"/>
     <use xlink:href="#DejaVuSans-59" transform="translate(154.734375 0)"/>
     <use xlink:href="#DejaVuSans-4c" transform="translate(213.921875 0)"/>
     <use xlink:href="#DejaVuSans-46" transform="translate(241.703125 0)"/>
     <use xlink:href="#DejaVuSans-48" transform="translate(296.6875 0)"/>
     <use xlink:href="#DejaVuSans-3" transform="translate(358.21875 0)"/>
     <use xlink:href="#DejaVuSans-99" transform="translate(390 0)"/>
     <use xlink:href="#DejaVuSans-3" transform="translate(473.796875 0)"/>
     <use xlink:href="#DejaVuSans-4b" transform="translate(505.578125 0)"/>
     <use xlink:href="#DejaVuSans-52" transform="translate(568.953125 0)"/>
     <use xlink:href="#DejaVuSans-58" transform="translate(630.140625 0)"/>
     <use xlink:href="#DejaVuSans-55" transform="translate(693.515625 0)"/>
     <use xlink:href="#DejaVuSans-3" transform="translate(734.625 0)"/>
     <use xlink:href="#DejaVuSans-44" transform="translate(766.40625 0)"/>
     <use xlink:href="#DejaVuSans-55" transform="translate(827.6875 0)"/>
     <use xlink:href="#DejaVuSans-55" transform="translate(867.046875 0)"/>
     <use xlink:href="#DejaVuSans-4c" transform="translate(908.15625 0)"/>
     <use xlink:href="#DejaVuSans-59" transform="translate(935.9375 0)"/>
     <use xlink:href="#DejaVuSans-44" transform="translate(995.125 0)"/>
     <use xlink:href="#DejaVuSans-4f" transform="translate(1056.40625 0)"/>
     <use xlink:href="#DejaVuSans-56" transform="translate(1084.1875 0)"/>
    </g>
    <!-- mobility · faults · capacity -->
    <g style="fill: #66788a" transform="translate(42.709331 283.572937) scale(0.083 -0.083)">
     <defs>
      <path id="DejaVuSans-50" d="M 3328 2828 
Q 3544 3216 3844 3400 
Q 4144 3584 4550 3584 
Q 5097 3584 5394 3201 
Q 5691 2819 5691 2113 
L 5691 0 
L 5113 0 
L 5113 2094 
Q 5113 2597 4934 2840 
Q 4756 3084 4391 3084 
Q 3944 3084 3684 2787 
Q 3425 2491 3425 1978 
L 3425 0 
L 2847 0 
L 2847 2094 
Q 2847 2600 2669 2842 
Q 2491 3084 2119 3084 
Q 1678 3084 1418 2786 
Q 1159 2488 1159 1978 
L 1159 0 
L 581 0 
L 581 3500 
L 1159 3500 
L 1159 2956 
Q 1356 3278 1631 3431 
Q 1906 3584 2284 3584 
Q 2666 3584 2933 3390 
Q 3200 3197 3328 2828 
z
" transform="scale(0.015625)"/>
      <path id="DejaVuSans-45" d="M 3116 1747 
Q 3116 2381 2855 2742 
Q 2594 3103 2138 3103 
Q 1681 3103 1420 2742 
Q 1159 2381 1159 1747 
Q 1159 1113 1420 752 
Q 1681 391 2138 391 
Q 2594 391 2855 752 
Q 3116 1113 3116 1747 
z
M 1159 2969 
Q 1341 3281 1617 3432 
Q 1894 3584 2278 3584 
Q 2916 3584 3314 3078 
Q 3713 2572 3713 1747 
Q 3713 922 3314 415 
Q 2916 -91 2278 -91 
Q 1894 -91 1617 61 
Q 1341 213 1159 525 
L 1159 0 
L 581 0 
L 581 4863 
L 1159 4863 
L 1159 2969 
z
" transform="scale(0.015625)"/>
      <path id="DejaVuSans-57" d="M 1172 4494 
L 1172 3500 
L 2356 3500 
L 2356 3053 
L 1172 3053 
L 1172 1153 
Q 1172 725 1289 603 
Q 1406 481 1766 481 
L 2356 481 
L 2356 0 
L 1766 0 
Q 1100 0 847 248 
Q 594 497 594 1153 
L 594 3053 
L 172 3053 
L 172 3500 
L 594 3500 
L 594 4494 
L 1172 4494 
z
" transform="scale(0.015625)"/>
      <path id="DejaVuSans-5c" d="M 2059 -325 
Q 1816 -950 1584 -1140 
Q 1353 -1331 966 -1331 
L 506 -1331 
L 506 -850 
L 844 -850 
Q 1081 -850 1212 -737 
Q 1344 -625 1503 -206 
L 1606 56 
L 191 3500 
L 800 3500 
L 1894 763 
L 2988 3500 
L 3597 3500 
L 2059 -325 
z
" transform="scale(0.015625)"/>
      <path id="DejaVuSans-79" d="M 684 2619 
L 1344 2619 
L 1344 1825 
L 684 1825 
L 684 2619 
z
" transform="scale(0.015625)"/>
      <path id="DejaVuSans-49" d="M 2375 4863 
L 2375 4384 
L 1825 4384 
Q 1516 4384 1395 4259 
Q 1275 4134 1275 3809 
L 1275 3500 
L 2222 3500 
L 2222 3053 
L 1275 3053 
L 1275 0 
L 697 0 
L 697 3053 
L 147 3053 
L 147 3500 
L 697 3500 
L 697 3744 
Q 697 4328 969 4595 
Q 1241 4863 1831 4863 
L 2375 4863 
z
" transform="scale(0.015625)"/>
      <path id="DejaVuSans-53" d="M 1159 525 
L 1159 -1331 
L 581 -1331 
L 581 3500 
L 1159 3500 
L 1159 2969 
Q 1341 3281 1617 3432 
Q 1894 3584 2278 3584 
Q 2916 3584 3314 3078 
Q 3713 2572 3713 1747 
Q 3713 922 3314 415 
Q 2916 -91 2278 -91 
Q 1894 -91 1617 61 
Q 1341 213 1159 525 
z
M 3116 1747 
Q 3116 2381 2855 2742 
Q 2594 3103 2138 3103 
Q 1681 3103 1420 2742 
Q 1159 2381 1159 1747 
Q 1159 1113 1420 752 
Q 1681 391 2138 391 
Q 2594 391 2855 752 
Q 3116 1113 3116 1747 
z
" transform="scale(0.015625)"/>
     </defs>
     <use xlink:href="#DejaVuSans-50"/>
     <use xlink:href="#DejaVuSans-52" transform="translate(97.40625 0)"/>
     <use xlink:href="#DejaVuSans-45" transform="translate(158.59375 0)"/>
     <use xlink:href="#DejaVuSans-4c" transform="translate(222.078125 0)"/>
     <use xlink:href="#DejaVuSans-4f" transform="translate(249.859375 0)"/>
     <use xlink:href="#DejaVuSans-4c" transform="translate(277.640625 0)"/>
     <use xlink:href="#DejaVuSans-57" transform="translate(305.421875 0)"/>
     <use xlink:href="#DejaVuSans-5c" transform="translate(344.625 0)"/>
     <use xlink:href="#DejaVuSans-3" transform="translate(403.8125 0)"/>
     <use xlink:href="#DejaVuSans-79" transform="translate(435.59375 0)"/>
     <use xlink:href="#DejaVuSans-3" transform="translate(467.375 0)"/>
     <use xlink:href="#DejaVuSans-49" transform="translate(499.15625 0)"/>
     <use xlink:href="#DejaVuSans-44" transform="translate(534.359375 0)"/>
     <use xlink:href="#DejaVuSans-58" transform="translate(595.640625 0)"/>
     <use xlink:href="#DejaVuSans-4f" transform="translate(659.015625 0)"/>
     <use xlink:href="#DejaVuSans-57" transform="translate(686.796875 0)"/>
     <use xlink:href="#DejaVuSans-56" transform="translate(726 0)"/>
     <use xlink:href="#DejaVuSans-3" transform="translate(778.09375 0)"/>
     <use xlink:href="#DejaVuSans-79" transform="translate(809.875 0)"/>
     <use xlink:href="#DejaVuSans-3" transform="translate(841.65625 0)"/>
     <use xlink:href="#DejaVuSans-46" transform="translate(873.4375 0)"/>
     <use xlink:href="#DejaVuSans-44" transform="translate(928.421875 0)"/>
     <use xlink:href="#DejaVuSans-53" transform="translate(989.703125 0)"/>
     <use xlink:href="#DejaVuSans-44" transform="translate(1053.1875 0)"/>
     <use xlink:href="#DejaVuSans-46" transform="translate(1114.46875 0)"/>
     <use xlink:href="#DejaVuSans-4c" transform="translate(1169.453125 0)"/>
     <use xlink:href="#DejaVuSans-57" transform="translate(1197.234375 0)"/>
     <use xlink:href="#DejaVuSans-5c" transform="translate(1236.4375 0)"/>
    </g>
   </g>
   <g id="text_3">
    <!-- COHORT TWIN -->
    <g style="fill: #0b1f33" transform="translate(228.461134 246.485195) scale(0.105 -0.105)">
     <defs>
      <path id="DejaVuSans-Bold-32" d="M 2719 3878 
Q 2169 3878 1866 3472 
Q 1563 3066 1563 2328 
Q 1563 1594 1866 1187 
Q 2169 781 2719 781 
Q 3272 781 3575 1187 
Q 3878 1594 3878 2328 
Q 3878 3066 3575 3472 
Q 3272 3878 2719 3878 
z
M 2719 4750 
Q 3844 4750 4481 4106 
Q 5119 3463 5119 2328 
Q 5119 1197 4481 553 
Q 3844 -91 2719 -91 
Q 1597 -91 958 553 
Q 319 1197 319 2328 
Q 319 3463 958 4106 
Q 1597 4750 2719 4750 
z
" transform="scale(0.015625)"/>
      <path id="DejaVuSans-Bold-2b" d="M 588 4666 
L 1791 4666 
L 1791 2888 
L 3566 2888 
L 3566 4666 
L 4769 4666 
L 4769 0 
L 3566 0 
L 3566 1978 
L 1791 1978 
L 1791 0 
L 588 0 
L 588 4666 
z
" transform="scale(0.015625)"/>
      <path id="DejaVuSans-Bold-3a" d="M 191 4666 
L 1344 4666 
L 2150 1275 
L 2950 4666 
L 4109 4666 
L 4909 1275 
L 5716 4666 
L 6859 4666 
L 5759 0 
L 4372 0 
L 3525 3547 
L 2688 0 
L 1300 0 
L 191 4666 
z
" transform="scale(0.015625)"/>
     </defs>
     <use xlink:href="#DejaVuSans-Bold-26"/>
     <use xlink:href="#DejaVuSans-Bold-32" transform="translate(73.390625 0)"/>
     <use xlink:href="#DejaVuSans-Bold-2b" transform="translate(158.40625 0)"/>
     <use xlink:href="#DejaVuSans-Bold-32" transform="translate(242.09375 0)"/>
     <use xlink:href="#DejaVuSans-Bold-35" transform="translate(327.109375 0)"/>
     <use xlink:href="#DejaVuSans-Bold-37" transform="translate(399.625 0)"/>
     <use xlink:href="#DejaVuSans-Bold-3" transform="translate(467.84375 0)"/>
     <use xlink:href="#DejaVuSans-Bold-37" transform="translate(502.65625 0)"/>
     <use xlink:href="#DejaVuSans-Bold-3a" transform="translate(570.875 0)"/>
     <use xlink:href="#DejaVuSans-Bold-2c" transform="translate(681.171875 0)"/>
     <use xlink:href="#DejaVuSans-Bold-31" transform="translate(718.375 0)"/>
    </g>
   </g>
   <g id="text_4">
    <!-- 30 s steps · UL/DL -->
    <g style="fill: #66788a" transform="translate(233.137712 272.709664) scale(0.083 -0.083)">
     <defs>
      <path id="DejaVuSans-16" d="M 2597 2516 
Q 3050 2419 3304 2112 
Q 3559 1806 3559 1356 
Q 3559 666 3084 287 
Q 2609 -91 1734 -91 
Q 1441 -91 1130 -33 
Q 819 25 488 141 
L 488 750 
Q 750 597 1062 519 
Q 1375 441 1716 441 
Q 2309 441 2620 675 
Q 2931 909 2931 1356 
Q 2931 1769 2642 2001 
Q 2353 2234 1838 2234 
L 1294 2234 
L 1294 2753 
L 1863 2753 
Q 2328 2753 2575 2939 
Q 2822 3125 2822 3475 
Q 2822 3834 2567 4026 
Q 2313 4219 1838 4219 
Q 1578 4219 1281 4162 
Q 984 4106 628 3988 
L 628 4550 
Q 988 4650 1302 4700 
Q 1616 4750 1894 4750 
Q 2613 4750 3031 4423 
Q 3450 4097 3450 3541 
Q 3450 3153 3228 2886 
Q 3006 2619 2597 2516 
z
" transform="scale(0.015625)"/>
      <path id="DejaVuSans-13" d="M 2034 4250 
Q 1547 4250 1301 3770 
Q 1056 3291 1056 2328 
Q 1056 1369 1301 889 
Q 1547 409 2034 409 
Q 2525 409 2770 889 
Q 3016 1369 3016 2328 
Q 3016 3291 2770 3770 
Q 2525 4250 2034 4250 
z
M 2034 4750 
Q 2819 4750 3233 4129 
Q 3647 3509 3647 2328 
Q 3647 1150 3233 529 
Q 2819 -91 2034 -91 
Q 1250 -91 836 529 
Q 422 1150 422 2328 
Q 422 3509 836 4129 
Q 1250 4750 2034 4750 
z
" transform="scale(0.015625)"/>
      <path id="DejaVuSans-38" d="M 556 4666 
L 1191 4666 
L 1191 1831 
Q 1191 1081 1462 751 
Q 1734 422 2344 422 
Q 2950 422 3222 751 
Q 3494 1081 3494 1831 
L 3494 4666 
L 4128 4666 
L 4128 1753 
Q 4128 841 3676 375 
Q 3225 -91 2344 -91 
Q 1459 -91 1007 375 
Q 556 841 556 1753 
L 556 4666 
z
" transform="scale(0.015625)"/>
      <path id="DejaVuSans-2f" d="M 628 4666 
L 1259 4666 
L 1259 531 
L 3531 531 
L 3531 0 
L 628 0 
L 628 4666 
z
" transform="scale(0.015625)"/>
      <path id="DejaVuSans-12" d="M 1625 4666 
L 2156 4666 
L 531 -594 
L 0 -594 
L 1625 4666 
z
" transform="scale(0.015625)"/>
      <path id="DejaVuSans-27" d="M 1259 4147 
L 1259 519 
L 2022 519 
Q 2988 519 3436 956 
Q 3884 1394 3884 2338 
Q 3884 3275 3436 3711 
Q 2988 4147 2022 4147 
L 1259 4147 
z
M 628 4666 
L 1925 4666 
Q 3281 4666 3915 4102 
Q 4550 3538 4550 2338 
Q 4550 1131 3912 565 
Q 3275 0 1925 0 
L 628 0 
L 628 4666 
z
" transform="scale(0.015625)"/>
     </defs>
     <use xlink:href="#DejaVuSans-16"/>
     <use xlink:href="#DejaVuSans-13" transform="translate(63.625 0)"/>
     <use xlink:href="#DejaVuSans-3" transform="translate(127.25 0)"/>
     <use xlink:href="#DejaVuSans-56" transform="translate(159.03125 0)"/>
     <use xlink:href="#DejaVuSans-3" transform="translate(211.125 0)"/>
     <use xlink:href="#DejaVuSans-56" transform="translate(242.90625 0)"/>
     <use xlink:href="#DejaVuSans-57" transform="translate(295 0)"/>
     <use xlink:href="#DejaVuSans-48" transform="translate(334.203125 0)"/>
     <use xlink:href="#DejaVuSans-53" transform="translate(395.734375 0)"/>
     <use xlink:href="#DejaVuSans-56" transform="translate(459.21875 0)"/>
     <use xlink:href="#DejaVuSans-3" transform="translate(511.3125 0)"/>
     <use xlink:href="#DejaVuSans-79" transform="translate(543.09375 0)"/>
     <use xlink:href="#DejaVuSans-3" transform="translate(574.875 0)"/>
     <use xlink:href="#DejaVuSans-38" transform="translate(606.65625 0)"/>
     <use xlink:href="#DejaVuSans-2f" transform="translate(679.84375 0)"/>
     <use xlink:href="#DejaVuSans-12" transform="translate(735.5625 0)"/>
     <use xlink:href="#DejaVuSans-27" transform="translate(769.25 0)"/>
     <use xlink:href="#DejaVuSans-2f" transform="translate(846.25 0)"/>
    </g>
    <!-- sessions · censoring · queues -->
    <g style="fill: #66788a" transform="translate(209.678541 283.572937) scale(0.083 -0.083)">
     <defs>
      <path id="DejaVuSans-51" d="M 3513 2113 
L 3513 0 
L 2938 0 
L 2938 2094 
Q 2938 2591 2744 2837 
Q 2550 3084 2163 3084 
Q 1697 3084 1428 2787 
Q 1159 2491 1159 1978 
L 1159 0 
L 581 0 
L 581 3500 
L 1159 3500 
L 1159 2956 
Q 1366 3272 1645 3428 
Q 1925 3584 2291 3584 
Q 2894 3584 3203 3211 
Q 3513 2838 3513 2113 
z
" transform="scale(0.015625)"/>
      <path id="DejaVuSans-4a" d="M 2906 1791 
Q 2906 2416 2648 2759 
Q 2391 3103 1925 3103 
Q 1463 3103 1205 2759 
Q 947 2416 947 1791 
Q 947 1169 1205 825 
Q 1463 481 1925 481 
Q 2391 481 2648 825 
Q 2906 1169 2906 1791 
z
M 3481 434 
Q 3481 -459 3084 -895 
Q 2688 -1331 1869 -1331 
Q 1566 -1331 1297 -1286 
Q 1028 -1241 775 -1147 
L 775 -588 
Q 1028 -725 1275 -790 
Q 1522 -856 1778 -856 
Q 2344 -856 2625 -561 
Q 2906 -266 2906 331 
L 2906 616 
Q 2728 306 2450 153 
Q 2172 0 1784 0 
Q 1141 0 747 490 
Q 353 981 353 1791 
Q 353 2603 747 3093 
Q 1141 3584 1784 3584 
Q 2172 3584 2450 3431 
Q 2728 3278 2906 2969 
L 2906 3500 
L 3481 3500 
L 3481 434 
z
" transform="scale(0.015625)"/>
      <path id="DejaVuSans-54" d="M 947 1747 
Q 947 1113 1208 752 
Q 1469 391 1925 391 
Q 2381 391 2643 752 
Q 2906 1113 2906 1747 
Q 2906 2381 2643 2742 
Q 2381 3103 1925 3103 
Q 1469 3103 1208 2742 
Q 947 2381 947 1747 
z
M 2906 525 
Q 2725 213 2448 61 
Q 2172 -91 1784 -91 
Q 1150 -91 751 415 
Q 353 922 353 1747 
Q 353 2572 751 3078 
Q 1150 3584 1784 3584 
Q 2172 3584 2448 3432 
Q 2725 3281 2906 2969 
L 2906 3500 
L 3481 3500 
L 3481 -1331 
L 2906 -1331 
L 2906 525 
z
" transform="scale(0.015625)"/>
     </defs>
     <use xlink:href="#DejaVuSans-56"/>
     <use xlink:href="#DejaVuSans-48" transform="translate(52.09375 0)"/>
     <use xlink:href="#DejaVuSans-56" transform="translate(113.625 0)"/>
     <use xlink:href="#DejaVuSans-56" transform="translate(165.71875 0)"/>
     <use xlink:href="#DejaVuSans-4c" transform="translate(217.8125 0)"/>
     <use xlink:href="#DejaVuSans-52" transform="translate(245.59375 0)"/>
     <use xlink:href="#DejaVuSans-51" transform="translate(306.78125 0)"/>
     <use xlink:href="#DejaVuSans-56" transform="translate(370.15625 0)"/>
     <use xlink:href="#DejaVuSans-3" transform="translate(422.25 0)"/>
     <use xlink:href="#DejaVuSans-79" transform="translate(454.03125 0)"/>
     <use xlink:href="#DejaVuSans-3" transform="translate(485.8125 0)"/>
     <use xlink:href="#DejaVuSans-46" transform="translate(517.59375 0)"/>
     <use xlink:href="#DejaVuSans-48" transform="translate(572.578125 0)"/>
     <use xlink:href="#DejaVuSans-51" transform="translate(634.109375 0)"/>
     <use xlink:href="#DejaVuSans-56" transform="translate(697.484375 0)"/>
     <use xlink:href="#DejaVuSans-52" transform="translate(749.578125 0)"/>
     <use xlink:href="#DejaVuSans-55" transform="translate(810.765625 0)"/>
     <use xlink:href="#DejaVuSans-4c" transform="translate(851.875 0)"/>
     <use xlink:href="#DejaVuSans-51" transform="translate(879.65625 0)"/>
     <use xlink:href="#DejaVuSans-4a" transform="translate(943.03125 0)"/>
     <use xlink:href="#DejaVuSans-3" transform="translate(1006.515625 0)"/>
     <use xlink:href="#DejaVuSans-79" transform="translate(1038.296875 0)"/>
     <use xlink:href="#DejaVuSans-3" transform="translate(1070.078125 0)"/>
     <use xlink:href="#DejaVuSans-54" transform="translate(1101.859375 0)"/>
     <use xlink:href="#DejaVuSans-58" transform="translate(1165.34375 0)"/>
     <use xlink:href="#DejaVuSans-48" transform="translate(1228.71875 0)"/>
     <use xlink:href="#DejaVuSans-58" transform="translate(1290.25 0)"/>
     <use xlink:href="#DejaVuSans-48" transform="translate(1353.625 0)"/>
     <use xlink:href="#DejaVuSans-56" transform="translate(1415.15625 0)"/>
    </g>
   </g>
   <g id="text_5">
    <!-- FORECASTERS -->
    <g style="fill: #0b1f33" transform="translate(402.294384 246.485195) scale(0.105 -0.105)">
     <use xlink:href="#DejaVuSans-Bold-29"/>
     <use xlink:href="#DejaVuSans-Bold-32" transform="translate(68.3125 0)"/>
     <use xlink:href="#DejaVuSans-Bold-35" transform="translate(153.328125 0)"/>
     <use xlink:href="#DejaVuSans-Bold-28" transform="translate(230.328125 0)"/>
     <use xlink:href="#DejaVuSans-Bold-26" transform="translate(298.640625 0)"/>
     <use xlink:href="#DejaVuSans-Bold-24" transform="translate(372.03125 0)"/>
     <use xlink:href="#DejaVuSans-Bold-36" transform="translate(449.421875 0)"/>
     <use xlink:href="#DejaVuSans-Bold-37" transform="translate(521.4375 0)"/>
     <use xlink:href="#DejaVuSans-Bold-28" transform="translate(589.65625 0)"/>
     <use xlink:href="#DejaVuSans-Bold-35" transform="translate(657.96875 0)"/>
     <use xlink:href="#DejaVuSans-Bold-36" transform="translate(734.96875 0)"/>
    </g>
   </g>
   <g id="text_6">
    <!-- sessions + Mbps -->
    <g style="fill: #66788a" transform="translate(410.010509 272.782937) scale(0.083 -0.083)">
     <defs>
      <path id="DejaVuSans-e" d="M 2944 4013 
L 2944 2272 
L 4684 2272 
L 4684 1741 
L 2944 1741 
L 2944 0 
L 2419 0 
L 2419 1741 
L 678 1741 
L 678 2272 
L 2419 2272 
L 2419 4013 
L 2944 4013 
z
" transform="scale(0.015625)"/>
      <path id="DejaVuSans-30" d="M 628 4666 
L 1569 4666 
L 2759 1491 
L 3956 4666 
L 4897 4666 
L 4897 0 
L 4281 0 
L 4281 4097 
L 3078 897 
L 2444 897 
L 1241 4097 
L 1241 0 
L 628 0 
L 628 4666 
z
" transform="scale(0.015625)"/>
     </defs>
     <use xlink:href="#DejaVuSans-56"/>
     <use xlink:href="#DejaVuSans-48" transform="translate(52.09375 0)"/>
     <use xlink:href="#DejaVuSans-56" transform="translate(113.625 0)"/>
     <use xlink:href="#DejaVuSans-56" transform="translate(165.71875 0)"/>
     <use xlink:href="#DejaVuSans-4c" transform="translate(217.8125 0)"/>
     <use xlink:href="#DejaVuSans-52" transform="translate(245.59375 0)"/>
     <use xlink:href="#DejaVuSans-51" transform="translate(306.78125 0)"/>
     <use xlink:href="#DejaVuSans-56" transform="translate(370.15625 0)"/>
     <use xlink:href="#DejaVuSans-3" transform="translate(422.25 0)"/>
     <use xlink:href="#DejaVuSans-e" transform="translate(454.03125 0)"/>
     <use xlink:href="#DejaVuSans-3" transform="translate(537.828125 0)"/>
     <use xlink:href="#DejaVuSans-30" transform="translate(569.609375 0)"/>
     <use xlink:href="#DejaVuSans-45" transform="translate(655.890625 0)"/>
     <use xlink:href="#DejaVuSans-53" transform="translate(719.375 0)"/>
     <use xlink:href="#DejaVuSans-56" transform="translate(782.859375 0)"/>
    </g>
    <!-- uncertainty + survival -->
    <g style="fill: #66788a" transform="translate(398.448219 283.572937) scale(0.083 -0.083)">
     <use xlink:href="#DejaVuSans-58"/>
     <use xlink:href="#DejaVuSans-51" transform="translate(63.375 0)"/>
     <use xlink:href="#DejaVuSans-46" transform="translate(126.75 0)"/>
     <use xlink:href="#DejaVuSans-48" transform="translate(181.734375 0)"/>
     <use xlink:href="#DejaVuSans-55" transform="translate(243.265625 0)"/>
     <use xlink:href="#DejaVuSans-57" transform="translate(284.375 0)"/>
     <use xlink:href="#DejaVuSans-44" transform="translate(323.578125 0)"/>
     <use xlink:href="#DejaVuSans-4c" transform="translate(384.859375 0)"/>
     <use xlink:href="#DejaVuSans-51" transform="translate(412.640625 0)"/>
     <use xlink:href="#DejaVuSans-57" transform="translate(476.015625 0)"/>
     <use xlink:href="#DejaVuSans-5c" transform="translate(515.21875 0)"/>
     <use xlink:href="#DejaVuSans-3" transform="translate(574.40625 0)"/>
     <use xlink:href="#DejaVuSans-e" transform="translate(606.1875 0)"/>
     <use xlink:href="#DejaVuSans-3" transform="translate(689.984375 0)"/>
     <use xlink:href="#DejaVuSans-56" transform="translate(721.765625 0)"/>
     <use xlink:href="#DejaVuSans-58" transform="translate(773.859375 0)"/>
     <use xlink:href="#DejaVuSans-55" transform="translate(837.234375 0)"/>
     <use xlink:href="#DejaVuSans-59" transform="translate(878.34375 0)"/>
     <use xlink:href="#DejaVuSans-4c" transform="translate(937.53125 0)"/>
     <use xlink:href="#DejaVuSans-59" transform="translate(965.3125 0)"/>
     <use xlink:href="#DejaVuSans-44" transform="translate(1024.5 0)"/>
     <use xlink:href="#DejaVuSans-4f" transform="translate(1085.78125 0)"/>
    </g>
   </g>
   <g id="text_7">
    <!-- OPTIMIZER -->
    <g style="fill: #0b1f33" transform="translate(586.292945 246.485195) scale(0.105 -0.105)">
     <defs>
      <path id="DejaVuSans-Bold-33" d="M 588 4666 
L 2584 4666 
Q 3475 4666 3951 4270 
Q 4428 3875 4428 3144 
Q 4428 2409 3951 2014 
Q 3475 1619 2584 1619 
L 1791 1619 
L 1791 0 
L 588 0 
L 588 4666 
z
M 1791 3794 
L 1791 2491 
L 2456 2491 
Q 2806 2491 2997 2661 
Q 3188 2831 3188 3144 
Q 3188 3456 2997 3625 
Q 2806 3794 2456 3794 
L 1791 3794 
z
" transform="scale(0.015625)"/>
      <path id="DejaVuSans-Bold-30" d="M 588 4666 
L 2119 4666 
L 3181 2169 
L 4250 4666 
L 5778 4666 
L 5778 0 
L 4641 0 
L 4641 3413 
L 3566 897 
L 2803 897 
L 1728 3413 
L 1728 0 
L 588 0 
L 588 4666 
z
" transform="scale(0.015625)"/>
      <path id="DejaVuSans-Bold-3d" d="M 359 4666 
L 4281 4666 
L 4281 3938 
L 1778 909 
L 4353 909 
L 4353 0 
L 288 0 
L 288 728 
L 2791 3756 
L 359 3756 
L 359 4666 
z
" transform="scale(0.015625)"/>
     </defs>
     <use xlink:href="#DejaVuSans-Bold-32"/>
     <use xlink:href="#DejaVuSans-Bold-33" transform="translate(85.015625 0)"/>
     <use xlink:href="#DejaVuSans-Bold-37" transform="translate(158.3125 0)"/>
     <use xlink:href="#DejaVuSans-Bold-2c" transform="translate(226.53125 0)"/>
     <use xlink:href="#DejaVuSans-Bold-30" transform="translate(263.734375 0)"/>
     <use xlink:href="#DejaVuSans-Bold-2c" transform="translate(363.25 0)"/>
     <use xlink:href="#DejaVuSans-Bold-3d" transform="translate(400.453125 0)"/>
     <use xlink:href="#DejaVuSans-Bold-28" transform="translate(472.96875 0)"/>
     <use xlink:href="#DejaVuSans-Bold-35" transform="translate(541.28125 0)"/>
    </g>
   </g>
   <g id="text_8">
    <!-- oracle bounds · MPC -->
    <g style="fill: #66788a" transform="translate(576.488851 273.587) scale(0.083 -0.083)">
     <defs>
      <path id="DejaVuSans-47" d="M 2906 2969 
L 2906 4863 
L 3481 4863 
L 3481 0 
L 2906 0 
L 2906 525 
Q 2725 213 2448 61 
Q 2172 -91 1784 -91 
Q 1150 -91 751 415 
Q 353 922 353 1747 
Q 353 2572 751 3078 
Q 1150 3584 1784 3584 
Q 2172 3584 2448 3432 
Q 2725 3281 2906 2969 
z
M 947 1747 
Q 947 1113 1208 752 
Q 1469 391 1925 391 
Q 2381 391 2643 752 
Q 2906 1113 2906 1747 
Q 2906 2381 2643 2742 
Q 2381 3103 1925 3103 
Q 1469 3103 1208 2742 
Q 947 2381 947 1747 
z
" transform="scale(0.015625)"/>
      <path id="DejaVuSans-33" d="M 1259 4147 
L 1259 2394 
L 2053 2394 
Q 2494 2394 2734 2622 
Q 2975 2850 2975 3272 
Q 2975 3691 2734 3919 
Q 2494 4147 2053 4147 
L 1259 4147 
z
M 628 4666 
L 2053 4666 
Q 2838 4666 3239 4311 
Q 3641 3956 3641 3272 
Q 3641 2581 3239 2228 
Q 2838 1875 2053 1875 
L 1259 1875 
L 1259 0 
L 628 0 
L 628 4666 
z
" transform="scale(0.015625)"/>
      <path id="DejaVuSans-26" d="M 4122 4306 
L 4122 3641 
Q 3803 3938 3442 4084 
Q 3081 4231 2675 4231 
Q 1875 4231 1450 3742 
Q 1025 3253 1025 2328 
Q 1025 1406 1450 917 
Q 1875 428 2675 428 
Q 3081 428 3442 575 
Q 3803 722 4122 1019 
L 4122 359 
Q 3791 134 3420 21 
Q 3050 -91 2638 -91 
Q 1578 -91 968 557 
Q 359 1206 359 2328 
Q 359 3453 968 4101 
Q 1578 4750 2638 4750 
Q 3056 4750 3426 4639 
Q 3797 4528 4122 4306 
z
" transform="scale(0.015625)"/>
     </defs>
     <use xlink:href="#DejaVuSans-52"/>
     <use xlink:href="#DejaVuSans-55" transform="translate(61.1875 0)"/>
     <use xlink:href="#DejaVuSans-44" transform="translate(102.296875 0)"/>
     <use xlink:href="#DejaVuSans-46" transform="translate(163.578125 0)"/>
     <use xlink:href="#DejaVuSans-4f" transform="translate(218.5625 0)"/>
     <use xlink:href="#DejaVuSans-48" transform="translate(246.34375 0)"/>
     <use xlink:href="#DejaVuSans-3" transform="translate(307.875 0)"/>
     <use xlink:href="#DejaVuSans-45" transform="translate(339.65625 0)"/>
     <use xlink:href="#DejaVuSans-52" transform="translate(403.140625 0)"/>
     <use xlink:href="#DejaVuSans-58" transform="translate(464.328125 0)"/>
     <use xlink:href="#DejaVuSans-51" transform="translate(527.703125 0)"/>
     <use xlink:href="#DejaVuSans-47" transform="translate(591.078125 0)"/>
     <use xlink:href="#DejaVuSans-56" transform="translate(654.5625 0)"/>
     <use xlink:href="#DejaVuSans-3" transform="translate(706.65625 0)"/>
     <use xlink:href="#DejaVuSans-79" transform="translate(738.4375 0)"/>
     <use xlink:href="#DejaVuSans-3" transform="translate(770.21875 0)"/>
     <use xlink:href="#DejaVuSans-30" transform="translate(802 0)"/>
     <use xlink:href="#DejaVuSans-33" transform="translate(888.28125 0)"/>
     <use xlink:href="#DejaVuSans-26" transform="translate(948.578125 0)"/>
    </g>
    <!-- pre-drain flow + slack -->
    <g style="fill: #66788a" transform="translate(573.261578 283.572937) scale(0.083 -0.083)">
     <defs>
      <path id="DejaVuSans-10" d="M 313 2009 
L 1997 2009 
L 1997 1497 
L 313 1497 
L 313 2009 
z
" transform="scale(0.015625)"/>
      <path id="DejaVuSans-13b0" d="M 1831 4863 
L 3431 4863 
L 3431 0 
L 2853 0 
L 2853 4384 
L 1825 4384 
Q 1516 4384 1395 4259 
Q 1275 4134 1275 3809 
L 1275 3500 
L 2222 3500 
L 2222 3053 
L 1275 3053 
L 1275 0 
L 697 0 
L 697 3053 
L 147 3053 
L 147 3500 
L 697 3500 
L 697 3744 
Q 697 4328 969 4595 
Q 1241 4863 1831 4863 
z
" transform="scale(0.015625)"/>
      <path id="DejaVuSans-5a" d="M 269 3500 
L 844 3500 
L 1563 769 
L 2278 3500 
L 2956 3500 
L 3675 769 
L 4391 3500 
L 4966 3500 
L 4050 0 
L 3372 0 
L 2619 2869 
L 1863 0 
L 1184 0 
L 269 3500 
z
" transform="scale(0.015625)"/>
      <path id="DejaVuSans-4e" d="M 581 4863 
L 1159 4863 
L 1159 1991 
L 2875 3500 
L 3609 3500 
L 1753 1863 
L 3688 0 
L 2938 0 
L 1159 1709 
L 1159 0 
L 581 0 
L 581 4863 
z
" transform="scale(0.015625)"/>
     </defs>
     <use xlink:href="#DejaVuSans-53"/>
     <use xlink:href="#DejaVuSans-55" transform="translate(63.484375 0)"/>
     <use xlink:href="#DejaVuSans-48" transform="translate(102.390625 0)"/>
     <use xlink:href="#DejaVuSans-10" transform="translate(163.921875 0)"/>
     <use xlink:href="#DejaVuSans-47" transform="translate(200 0)"/>
     <use xlink:href="#DejaVuSans-55" transform="translate(263.484375 0)"/>
     <use xlink:href="#DejaVuSans-44" transform="translate(304.59375 0)"/>
     <use xlink:href="#DejaVuSans-4c" transform="translate(365.875 0)"/>
     <use xlink:href="#DejaVuSans-51" transform="translate(393.65625 0)"/>
     <use xlink:href="#DejaVuSans-3" transform="translate(457.03125 0)"/>
     <use xlink:href="#DejaVuSans-13b0" transform="translate(488.8125 0)"/>
     <use xlink:href="#DejaVuSans-52" transform="translate(551.796875 0)"/>
     <use xlink:href="#DejaVuSans-5a" transform="translate(612.984375 0)"/>
     <use xlink:href="#DejaVuSans-3" transform="translate(694.765625 0)"/>
     <use xlink:href="#DejaVuSans-e" transform="translate(726.546875 0)"/>
     <use xlink:href="#DejaVuSans-3" transform="translate(810.34375 0)"/>
     <use xlink:href="#DejaVuSans-56" transform="translate(842.125 0)"/>
     <use xlink:href="#DejaVuSans-4f" transform="translate(894.21875 0)"/>
     <use xlink:href="#DejaVuSans-44" transform="translate(922 0)"/>
     <use xlink:href="#DejaVuSans-46" transform="translate(983.28125 0)"/>
     <use xlink:href="#DejaVuSans-4e" transform="translate(1038.265625 0)"/>
    </g>
   </g>
   <g id="text_9">
    <!-- SAFETY GATE -->
    <g style="fill: #0b1f33" transform="translate(753.484944 246.485195) scale(0.105 -0.105)">
     <defs>
      <path id="DejaVuSans-Bold-3c" d="M -63 4666 
L 1253 4666 
L 2316 3003 
L 3378 4666 
L 4697 4666 
L 2919 1966 
L 2919 0 
L 1716 0 
L 1716 1966 
L -63 4666 
z
" transform="scale(0.015625)"/>
      <path id="DejaVuSans-Bold-2a" d="M 4781 347 
Q 4331 128 3847 18 
Q 3363 -91 2847 -91 
Q 1681 -91 1000 561 
Q 319 1213 319 2328 
Q 319 3456 1012 4103 
Q 1706 4750 2913 4750 
Q 3378 4750 3804 4662 
Q 4231 4575 4609 4403 
L 4609 3438 
Q 4219 3659 3833 3768 
Q 3447 3878 3059 3878 
Q 2341 3878 1952 3476 
Q 1563 3075 1563 2328 
Q 1563 1588 1938 1184 
Q 2313 781 3003 781 
Q 3191 781 3352 804 
Q 3513 828 3641 878 
L 3641 1784 
L 2906 1784 
L 2906 2591 
L 4781 2591 
L 4781 347 
z
" transform="scale(0.015625)"/>
     </defs>
     <use xlink:href="#DejaVuSans-Bold-36"/>
     <use xlink:href="#DejaVuSans-Bold-24" transform="translate(72.015625 0)"/>
     <use xlink:href="#DejaVuSans-Bold-29" transform="translate(149.40625 0)"/>
     <use xlink:href="#DejaVuSans-Bold-28" transform="translate(217.71875 0)"/>
     <use xlink:href="#DejaVuSans-Bold-37" transform="translate(286.03125 0)"/>
     <use xlink:href="#DejaVuSans-Bold-3c" transform="translate(354.25 0)"/>
     <use xlink:href="#DejaVuSans-Bold-3" transform="translate(426.65625 0)"/>
     <use xlink:href="#DejaVuSans-Bold-2a" transform="translate(461.46875 0)"/>
     <use xlink:href="#DejaVuSans-Bold-24" transform="translate(543.546875 0)"/>
     <use xlink:href="#DejaVuSans-Bold-37" transform="translate(613.171875 0)"/>
     <use xlink:href="#DejaVuSans-Bold-28" transform="translate(681.390625 0)"/>
    </g>
   </g>
   <g id="text_10">
    <!-- same-state certificate -->
    <g style="fill: #66788a" transform="translate(747.274116 273.587) scale(0.083 -0.083)">
     <defs>
      <path id="DejaVuSans-13af" d="M 3431 3500 
L 3431 0 
L 2853 0 
L 2853 3053 
L 1275 3053 
L 1275 0 
L 697 0 
L 697 3053 
L 147 3053 
L 147 3500 
L 697 3500 
L 697 3744 
Q 697 4316 967 4589 
Q 1238 4863 1797 4863 
L 2375 4863 
L 2375 4384 
L 1825 4384 
Q 1516 4384 1395 4259 
Q 1275 4134 1275 3809 
L 1275 3500 
L 3431 3500 
z
M 2853 4856 
L 3431 4856 
L 3431 4128 
L 2853 4128 
L 2853 4856 
z
" transform="scale(0.015625)"/>
     </defs>
     <use xlink:href="#DejaVuSans-56"/>
     <use xlink:href="#DejaVuSans-44" transform="translate(52.09375 0)"/>
     <use xlink:href="#DejaVuSans-50" transform="translate(113.375 0)"/>
     <use xlink:href="#DejaVuSans-48" transform="translate(210.78125 0)"/>
     <use xlink:href="#DejaVuSans-10" transform="translate(272.3125 0)"/>
     <use xlink:href="#DejaVuSans-56" transform="translate(308.390625 0)"/>
     <use xlink:href="#DejaVuSans-57" transform="translate(360.484375 0)"/>
     <use xlink:href="#DejaVuSans-44" transform="translate(399.6875 0)"/>
     <use xlink:href="#DejaVuSans-57" transform="translate(460.96875 0)"/>
     <use xlink:href="#DejaVuSans-48" transform="translate(500.171875 0)"/>
     <use xlink:href="#DejaVuSans-3" transform="translate(561.703125 0)"/>
     <use xlink:href="#DejaVuSans-46" transform="translate(593.484375 0)"/>
     <use xlink:href="#DejaVuSans-48" transform="translate(648.46875 0)"/>
     <use xlink:href="#DejaVuSans-55" transform="translate(710 0)"/>
     <use xlink:href="#DejaVuSans-57" transform="translate(751.109375 0)"/>
     <use xlink:href="#DejaVuSans-4c" transform="translate(790.3125 0)"/>
     <use xlink:href="#DejaVuSans-13af" transform="translate(818.09375 0)"/>
     <use xlink:href="#DejaVuSans-46" transform="translate(881.078125 0)"/>
     <use xlink:href="#DejaVuSans-44" transform="translate(936.0625 0)"/>
     <use xlink:href="#DejaVuSans-57" transform="translate(997.34375 0)"/>
     <use xlink:href="#DejaVuSans-48" transform="translate(1036.546875 0)"/>
    </g>
    <!-- fail closed to Static -->
    <g style="fill: #66788a" transform="translate(753.220937 284.377) scale(0.083 -0.083)">
     <defs>
      <path id="DejaVuSans-36" d="M 3425 4513 
L 3425 3897 
Q 3066 4069 2747 4153 
Q 2428 4238 2131 4238 
Q 1616 4238 1336 4038 
Q 1056 3838 1056 3469 
Q 1056 3159 1242 3001 
Q 1428 2844 1947 2747 
L 2328 2669 
Q 3034 2534 3370 2195 
Q 3706 1856 3706 1288 
Q 3706 609 3251 259 
Q 2797 -91 1919 -91 
Q 1588 -91 1214 -16 
Q 841 59 441 206 
L 441 856 
Q 825 641 1194 531 
Q 1563 422 1919 422 
Q 2459 422 2753 634 
Q 3047 847 3047 1241 
Q 3047 1584 2836 1778 
Q 2625 1972 2144 2069 
L 1759 2144 
Q 1053 2284 737 2584 
Q 422 2884 422 3419 
Q 422 4038 858 4394 
Q 1294 4750 2059 4750 
Q 2388 4750 2728 4690 
Q 3069 4631 3425 4513 
z
" transform="scale(0.015625)"/>
     </defs>
     <use xlink:href="#DejaVuSans-49"/>
     <use xlink:href="#DejaVuSans-44" transform="translate(35.203125 0)"/>
     <use xlink:href="#DejaVuSans-4c" transform="translate(96.484375 0)"/>
     <use xlink:href="#DejaVuSans-4f" transform="translate(124.265625 0)"/>
     <use xlink:href="#DejaVuSans-3" transform="translate(152.046875 0)"/>
     <use xlink:href="#DejaVuSans-46" transform="translate(183.828125 0)"/>
     <use xlink:href="#DejaVuSans-4f" transform="translate(238.8125 0)"/>
     <use xlink:href="#DejaVuSans-52" transform="translate(266.59375 0)"/>
     <use xlink:href="#DejaVuSans-56" transform="translate(327.78125 0)"/>
     <use xlink:href="#DejaVuSans-48" transform="translate(379.875 0)"/>
     <use xlink:href="#DejaVuSans-47" transform="translate(441.40625 0)"/>
     <use xlink:href="#DejaVuSans-3" transform="translate(504.890625 0)"/>
     <use xlink:href="#DejaVuSans-57" transform="translate(536.671875 0)"/>
     <use xlink:href="#DejaVuSans-52" transform="translate(575.875 0)"/>
     <use xlink:href="#DejaVuSans-3" transform="translate(637.0625 0)"/>
     <use xlink:href="#DejaVuSans-36" transform="translate(668.84375 0)"/>
     <use xlink:href="#DejaVuSans-57" transform="translate(732.328125 0)"/>
     <use xlink:href="#DejaVuSans-44" transform="translate(771.53125 0)"/>
     <use xlink:href="#DejaVuSans-57" transform="translate(832.8125 0)"/>
     <use xlink:href="#DejaVuSans-4c" transform="translate(872.015625 0)"/>
     <use xlink:href="#DejaVuSans-46" transform="translate(899.796875 0)"/>
    </g>
   </g>
   <g id="text_11">
    <!-- OBSERVABLE TELEMETRY -->
    <g style="fill: #0b1f33" transform="translate(201.497739 406.131078) scale(0.11 -0.11)">
     <defs>
      <path id="DejaVuSans-Bold-25" d="M 2456 2859 
Q 2741 2859 2887 2984 
Q 3034 3109 3034 3353 
Q 3034 3594 2887 3720 
Q 2741 3847 2456 3847 
L 1791 3847 
L 1791 2859 
L 2456 2859 
z
M 2497 819 
Q 2859 819 3042 972 
Q 3225 1125 3225 1434 
Q 3225 1738 3044 1889 
Q 2863 2041 2497 2041 
L 1791 2041 
L 1791 819 
L 2497 819 
z
M 3616 2497 
Q 4003 2384 4215 2081 
Q 4428 1778 4428 1338 
Q 4428 663 3972 331 
Q 3516 0 2584 0 
L 588 0 
L 588 4666 
L 2394 4666 
Q 3366 4666 3802 4372 
Q 4238 4078 4238 3431 
Q 4238 3091 4078 2852 
Q 3919 2613 3616 2497 
z
" transform="scale(0.015625)"/>
      <path id="DejaVuSans-Bold-2f" d="M 588 4666 
L 1791 4666 
L 1791 909 
L 3903 909 
L 3903 0 
L 588 0 
L 588 4666 
z
" transform="scale(0.015625)"/>
     </defs>
     <use xlink:href="#DejaVuSans-Bold-32"/>
     <use xlink:href="#DejaVuSans-Bold-25" transform="translate(85.015625 0)"/>
     <use xlink:href="#DejaVuSans-Bold-36" transform="translate(161.234375 0)"/>
     <use xlink:href="#DejaVuSans-Bold-28" transform="translate(233.25 0)"/>
     <use xlink:href="#DejaVuSans-Bold-35" transform="translate(301.5625 0)"/>
     <use xlink:href="#DejaVuSans-Bold-39" transform="translate(378.5625 0)"/>
     <use xlink:href="#DejaVuSans-Bold-24" transform="translate(449.171875 0)"/>
     <use xlink:href="#DejaVuSans-Bold-25" transform="translate(526.5625 0)"/>
     <use xlink:href="#DejaVuSans-Bold-2f" transform="translate(602.78125 0)"/>
     <use xlink:href="#DejaVuSans-Bold-28" transform="translate(666.5 0)"/>
     <use xlink:href="#DejaVuSans-Bold-3" transform="translate(734.8125 0)"/>
     <use xlink:href="#DejaVuSans-Bold-37" transform="translate(769.625 0)"/>
     <use xlink:href="#DejaVuSans-Bold-28" transform="translate(837.84375 0)"/>
     <use xlink:href="#DejaVuSans-Bold-2f" transform="translate(906.15625 0)"/>
     <use xlink:href="#DejaVuSans-Bold-28" transform="translate(969.875 0)"/>
     <use xlink:href="#DejaVuSans-Bold-30" transform="translate(1038.1875 0)"/>
     <use xlink:href="#DejaVuSans-Bold-28" transform="translate(1137.703125 0)"/>
     <use xlink:href="#DejaVuSans-Bold-37" transform="translate(1206.015625 0)"/>
     <use xlink:href="#DejaVuSans-Bold-35" transform="translate(1274.234375 0)"/>
     <use xlink:href="#DejaVuSans-Bold-3c" transform="translate(1345.765625 0)"/>
    </g>
   </g>
   <g id="text_12">
    <!-- arrivals · carried/dropped Mbps -->
    <g style="fill: #66788a" transform="translate(214.710505 425.872937) scale(0.083 -0.083)">
     <use xlink:href="#DejaVuSans-44"/>
     <use xlink:href="#DejaVuSans-55" transform="translate(61.28125 0)"/>
     <use xlink:href="#DejaVuSans-55" transform="translate(100.640625 0)"/>
     <use xlink:href="#DejaVuSans-4c" transform="translate(141.75 0)"/>
     <use xlink:href="#DejaVuSans-59" transform="translate(169.53125 0)"/>
     <use xlink:href="#DejaVuSans-44" transform="translate(228.71875 0)"/>
     <use xlink:href="#DejaVuSans-4f" transform="translate(290 0)"/>
     <use xlink:href="#DejaVuSans-56" transform="translate(317.78125 0)"/>
     <use xlink:href="#DejaVuSans-3" transform="translate(369.875 0)"/>
     <use xlink:href="#DejaVuSans-79" transform="translate(401.65625 0)"/>
     <use xlink:href="#DejaVuSans-3" transform="translate(433.4375 0)"/>
     <use xlink:href="#DejaVuSans-46" transform="translate(465.21875 0)"/>
     <use xlink:href="#DejaVuSans-44" transform="translate(520.203125 0)"/>
     <use xlink:href="#DejaVuSans-55" transform="translate(581.484375 0)"/>
     <use xlink:href="#DejaVuSans-55" transform="translate(620.84375 0)"/>
     <use xlink:href="#DejaVuSans-4c" transform="translate(661.953125 0)"/>
     <use xlink:href="#DejaVuSans-48" transform="translate(689.734375 0)"/>
     <use xlink:href="#DejaVuSans-47" transform="translate(751.265625 0)"/>
     <use xlink:href="#DejaVuSans-12" transform="translate(814.75 0)"/>
     <use xlink:href="#DejaVuSans-47" transform="translate(848.4375 0)"/>
     <use xlink:href="#DejaVuSans-55" transform="translate(911.921875 0)"/>
     <use xlink:href="#DejaVuSans-52" transform="translate(950.828125 0)"/>
     <use xlink:href="#DejaVuSans-53" transform="translate(1012.015625 0)"/>
     <use xlink:href="#DejaVuSans-53" transform="translate(1075.5 0)"/>
     <use xlink:href="#DejaVuSans-48" transform="translate(1138.984375 0)"/>
     <use xlink:href="#DejaVuSans-47" transform="translate(1200.515625 0)"/>
     <use xlink:href="#DejaVuSans-3" transform="translate(1264 0)"/>
     <use xlink:href="#DejaVuSans-30" transform="translate(1295.78125 0)"/>
     <use xlink:href="#DejaVuSans-45" transform="translate(1382.0625 0)"/>
     <use xlink:href="#DejaVuSans-53" transform="translate(1445.546875 0)"/>
     <use xlink:href="#DejaVuSans-56" transform="translate(1509.03125 0)"/>
    </g>
    <!-- active sessions · lifecycle records -->
    <g style="fill: #66788a" transform="translate(210.298536 436.662937) scale(0.083 -0.083)">
     <use xlink:href="#DejaVuSans-44"/>
     <use xlink:href="#DejaVuSans-46" transform="translate(61.28125 0)"/>
     <use xlink:href="#DejaVuSans-57" transform="translate(116.265625 0)"/>
     <use xlink:href="#DejaVuSans-4c" transform="translate(155.46875 0)"/>
     <use xlink:href="#DejaVuSans-59" transform="translate(183.25 0)"/>
     <use xlink:href="#DejaVuSans-48" transform="translate(242.4375 0)"/>
     <use xlink:href="#DejaVuSans-3" transform="translate(303.96875 0)"/>
     <use xlink:href="#DejaVuSans-56" transform="translate(335.75 0)"/>
     <use xlink:href="#DejaVuSans-48" transform="translate(387.84375 0)"/>
     <use xlink:href="#DejaVuSans-56" transform="translate(449.375 0)"/>
     <use xlink:href="#DejaVuSans-56" transform="translate(501.46875 0)"/>
     <use xlink:href="#DejaVuSans-4c" transform="translate(553.5625 0)"/>
     <use xlink:href="#DejaVuSans-52" transform="translate(581.34375 0)"/>
     <use xlink:href="#DejaVuSans-51" transform="translate(642.53125 0)"/>
     <use xlink:href="#DejaVuSans-56" transform="translate(705.90625 0)"/>
     <use xlink:href="#DejaVuSans-3" transform="translate(758 0)"/>
     <use xlink:href="#DejaVuSans-79" transform="translate(789.78125 0)"/>
     <use xlink:href="#DejaVuSans-3" transform="translate(821.5625 0)"/>
     <use xlink:href="#DejaVuSans-4f" transform="translate(853.34375 0)"/>
     <use xlink:href="#DejaVuSans-4c" transform="translate(881.125 0)"/>
     <use xlink:href="#DejaVuSans-49" transform="translate(908.90625 0)"/>
     <use xlink:href="#DejaVuSans-48" transform="translate(944.109375 0)"/>
     <use xlink:href="#DejaVuSans-46" transform="translate(1005.640625 0)"/>
     <use xlink:href="#DejaVuSans-5c" transform="translate(1060.625 0)"/>
     <use xlink:href="#DejaVuSans-46" transform="translate(1119.8125 0)"/>
     <use xlink:href="#DejaVuSans-4f" transform="translate(1174.796875 0)"/>
     <use xlink:href="#DejaVuSans-48" transform="translate(1202.578125 0)"/>
     <use xlink:href="#DejaVuSans-3" transform="translate(1264.109375 0)"/>
     <use xlink:href="#DejaVuSans-55" transform="translate(1295.890625 0)"/>
     <use xlink:href="#DejaVuSans-48" transform="translate(1334.796875 0)"/>
     <use xlink:href="#DejaVuSans-46" transform="translate(1396.328125 0)"/>
     <use xlink:href="#DejaVuSans-52" transform="translate(1451.3125 0)"/>
     <use xlink:href="#DejaVuSans-55" transform="translate(1512.5 0)"/>
     <use xlink:href="#DejaVuSans-47" transform="translate(1551.859375 0)"/>
     <use xlink:href="#DejaVuSans-56" transform="translate(1615.34375 0)"/>
    </g>
   </g>
   <g id="text_13">
    <!-- HASHED REPLAY EVIDENCE -->
    <g style="fill: #0b1f33" transform="translate(544.084784 406.131078) scale(0.11 -0.11)">
     <defs>
      <path id="DejaVuSans-Bold-27" d="M 1791 3756 
L 1791 909 
L 2222 909 
Q 2959 909 3348 1275 
Q 3738 1641 3738 2338 
Q 3738 3031 3350 3393 
Q 2963 3756 2222 3756 
L 1791 3756 
z
M 588 4666 
L 1856 4666 
Q 2919 4666 3439 4514 
Q 3959 4363 4331 4000 
Q 4659 3684 4818 3271 
Q 4978 2859 4978 2338 
Q 4978 1809 4818 1395 
Q 4659 981 4331 666 
Q 3956 303 3431 151 
Q 2906 0 1856 0 
L 588 0 
L 588 4666 
z
" transform="scale(0.015625)"/>
     </defs>
     <use xlink:href="#DejaVuSans-Bold-2b"/>
     <use xlink:href="#DejaVuSans-Bold-24" transform="translate(83.6875 0)"/>
     <use xlink:href="#DejaVuSans-Bold-36" transform="translate(161.078125 0)"/>
     <use xlink:href="#DejaVuSans-Bold-2b" transform="translate(233.09375 0)"/>
     <use xlink:href="#DejaVuSans-Bold-28" transform="translate(316.78125 0)"/>
     <use xlink:href="#DejaVuSans-Bold-27" transform="translate(385.09375 0)"/>
     <use xlink:href="#DejaVuSans-Bold-3" transform="translate(468.109375 0)"/>
     <use xlink:href="#DejaVuSans-Bold-35" transform="translate(502.921875 0)"/>
     <use xlink:href="#DejaVuSans-Bold-28" transform="translate(579.921875 0)"/>
     <use xlink:href="#DejaVuSans-Bold-33" transform="translate(648.234375 0)"/>
     <use xlink:href="#DejaVuSans-Bold-2f" transform="translate(721.53125 0)"/>
     <use xlink:href="#DejaVuSans-Bold-24" transform="translate(785.25 0)"/>
     <use xlink:href="#DejaVuSans-Bold-3c" transform="translate(853.078125 0)"/>
     <use xlink:href="#DejaVuSans-Bold-3" transform="translate(925.484375 0)"/>
     <use xlink:href="#DejaVuSans-Bold-28" transform="translate(960.296875 0)"/>
     <use xlink:href="#DejaVuSans-Bold-39" transform="translate(1028.609375 0)"/>
     <use xlink:href="#DejaVuSans-Bold-2c" transform="translate(1106 0)"/>
     <use xlink:href="#DejaVuSans-Bold-27" transform="translate(1143.203125 0)"/>
     <use xlink:href="#DejaVuSans-Bold-28" transform="translate(1226.21875 0)"/>
     <use xlink:href="#DejaVuSans-Bold-31" transform="translate(1294.53125 0)"/>
     <use xlink:href="#DejaVuSans-Bold-26" transform="translate(1378.21875 0)"/>
     <use xlink:href="#DejaVuSans-Bold-28" transform="translate(1451.609375 0)"/>
    </g>
   </g>
   <g id="text_14">
    <!-- paired seeds · scenario slices -->
    <g style="fill: #66788a" transform="translate(566.853159 425.872937) scale(0.083 -0.083)">
     <use xlink:href="#DejaVuSans-53"/>
     <use xlink:href="#DejaVuSans-44" transform="translate(63.484375 0)"/>
     <use xlink:href="#DejaVuSans-4c" transform="translate(124.765625 0)"/>
     <use xlink:href="#DejaVuSans-55" transform="translate(152.546875 0)"/>
     <use xlink:href="#DejaVuSans-48" transform="translate(191.453125 0)"/>
     <use xlink:href="#DejaVuSans-47" transform="translate(252.984375 0)"/>
     <use xlink:href="#DejaVuSans-3" transform="translate(316.46875 0)"/>
     <use xlink:href="#DejaVuSans-56" transform="translate(348.25 0)"/>
     <use xlink:href="#DejaVuSans-48" transform="translate(400.34375 0)"/>
     <use xlink:href="#DejaVuSans-48" transform="translate(461.875 0)"/>
     <use xlink:href="#DejaVuSans-47" transform="translate(523.40625 0)"/>
     <use xlink:href="#DejaVuSans-56" transform="translate(586.890625 0)"/>
     <use xlink:href="#DejaVuSans-3" transform="translate(638.984375 0)"/>
     <use xlink:href="#DejaVuSans-79" transform="translate(670.765625 0)"/>
     <use xlink:href="#DejaVuSans-3" transform="translate(702.546875 0)"/>
     <use xlink:href="#DejaVuSans-56" transform="translate(734.328125 0)"/>
     <use xlink:href="#DejaVuSans-46" transform="translate(786.421875 0)"/>
     <use xlink:href="#DejaVuSans-48" transform="translate(841.40625 0)"/>
     <use xlink:href="#DejaVuSans-51" transform="translate(902.9375 0)"/>
     <use xlink:href="#DejaVuSans-44" transform="translate(966.3125 0)"/>
     <use xlink:href="#DejaVuSans-55" transform="translate(1027.59375 0)"/>
     <use xlink:href="#DejaVuSans-4c" transform="translate(1068.703125 0)"/>
     <use xlink:href="#DejaVuSans-52" transform="translate(1096.484375 0)"/>
     <use xlink:href="#DejaVuSans-3" transform="translate(1157.671875 0)"/>
     <use xlink:href="#DejaVuSans-56" transform="translate(1189.453125 0)"/>
     <use xlink:href="#DejaVuSans-4f" transform="translate(1241.546875 0)"/>
     <use xlink:href="#DejaVuSans-4c" transform="translate(1269.328125 0)"/>
     <use xlink:href="#DejaVuSans-46" transform="translate(1297.109375 0)"/>
     <use xlink:href="#DejaVuSans-48" transform="translate(1352.09375 0)"/>
     <use xlink:href="#DejaVuSans-56" transform="translate(1413.625 0)"/>
    </g>
    <!-- tails · latency · resource gates -->
    <g style="fill: #66788a" transform="translate(565.095894 436.662937) scale(0.083 -0.083)">
     <use xlink:href="#DejaVuSans-57"/>
     <use xlink:href="#DejaVuSans-44" transform="translate(39.203125 0)"/>
     <use xlink:href="#DejaVuSans-4c" transform="translate(100.484375 0)"/>
     <use xlink:href="#DejaVuSans-4f" transform="translate(128.265625 0)"/>
     <use xlink:href="#DejaVuSans-56" transform="translate(156.046875 0)"/>
     <use xlink:href="#DejaVuSans-3" transform="translate(208.140625 0)"/>
     <use xlink:href="#DejaVuSans-79" transform="translate(239.921875 0)"/>
     <use xlink:href="#DejaVuSans-3" transform="translate(271.703125 0)"/>
     <use xlink:href="#DejaVuSans-4f" transform="translate(303.484375 0)"/>
     <use xlink:href="#DejaVuSans-44" transform="translate(331.265625 0)"/>
     <use xlink:href="#DejaVuSans-57" transform="translate(392.546875 0)"/>
     <use xlink:href="#DejaVuSans-48" transform="translate(431.75 0)"/>
     <use xlink:href="#DejaVuSans-51" transform="translate(493.28125 0)"/>
     <use xlink:href="#DejaVuSans-46" transform="translate(556.65625 0)"/>
     <use xlink:href="#DejaVuSans-5c" transform="translate(611.640625 0)"/>
     <use xlink:href="#DejaVuSans-3" transform="translate(670.828125 0)"/>
     <use xlink:href="#DejaVuSans-79" transform="translate(702.609375 0)"/>
     <use xlink:href="#DejaVuSans-3" transform="translate(734.390625 0)"/>
     <use xlink:href="#DejaVuSans-55" transform="translate(766.171875 0)"/>
     <use xlink:href="#DejaVuSans-48" transform="translate(805.078125 0)"/>
     <use xlink:href="#DejaVuSans-56" transform="translate(866.609375 0)"/>
     <use xlink:href="#DejaVuSans-52" transform="translate(918.703125 0)"/>
     <use xlink:href="#DejaVuSans-58" transform="translate(979.890625 0)"/>
     <use xlink:href="#DejaVuSans-55" transform="translate(1043.265625 0)"/>
     <use xlink:href="#DejaVuSans-46" transform="translate(1082.171875 0)"/>
     <use xlink:href="#DejaVuSans-48" transform="translate(1137.15625 0)"/>
     <use xlink:href="#DejaVuSans-3" transform="translate(1198.6875 0)"/>
     <use xlink:href="#DejaVuSans-4a" transform="translate(1230.46875 0)"/>
     <use xlink:href="#DejaVuSans-44" transform="translate(1293.953125 0)"/>
     <use xlink:href="#DejaVuSans-57" transform="translate(1355.234375 0)"/>
     <use xlink:href="#DejaVuSans-48" transform="translate(1394.4375 0)"/>
     <use xlink:href="#DejaVuSans-56" transform="translate(1455.96875 0)"/>
    </g>
   </g>
  </g>
  <g id="text_15">
   <!-- SYSTEM -->
   <g style="fill: #00a6a6" transform="translate(31.1994 14.797656) scale(0.1 -0.1)">
    <use xlink:href="#DejaVuSans-Bold-36"/>
    <use xlink:href="#DejaVuSans-Bold-3c" transform="translate(72.015625 0)"/>
    <use xlink:href="#DejaVuSans-Bold-36" transform="translate(144.421875 0)"/>
    <use xlink:href="#DejaVuSans-Bold-37" transform="translate(216.4375 0)"/>
    <use xlink:href="#DejaVuSans-Bold-28" transform="translate(284.65625 0)"/>
    <use xlink:href="#DejaVuSans-Bold-30" transform="translate(352.96875 0)"/>
   </g>
  </g>
  <g id="text_16">
   <!-- The 5G twin is a closed evidence loop -->
   <g style="fill: #0b1f33" transform="translate(31.1994 47.197656) scale(0.24 -0.24)">
    <defs>
     <path id="DejaVuSans-Bold-4b" d="M 4056 2131 
L 4056 0 
L 2931 0 
L 2931 347 
L 2931 1625 
Q 2931 2084 2911 2256 
Q 2891 2428 2841 2509 
Q 2775 2619 2662 2680 
Q 2550 2741 2406 2741 
Q 2056 2741 1856 2470 
Q 1656 2200 1656 1722 
L 1656 0 
L 538 0 
L 538 4863 
L 1656 4863 
L 1656 2988 
Q 1909 3294 2193 3439 
Q 2478 3584 2822 3584 
Q 3428 3584 3742 3212 
Q 4056 2841 4056 2131 
z
" transform="scale(0.015625)"/>
     <path id="DejaVuSans-Bold-48" d="M 4031 1759 
L 4031 1441 
L 1416 1441 
Q 1456 1047 1700 850 
Q 1944 653 2381 653 
Q 2734 653 3104 758 
Q 3475 863 3866 1075 
L 3866 213 
Q 3469 63 3072 -14 
Q 2675 -91 2278 -91 
Q 1328 -91 801 392 
Q 275 875 275 1747 
Q 275 2603 792 3093 
Q 1309 3584 2216 3584 
Q 3041 3584 3536 3087 
Q 4031 2591 4031 1759 
z
M 2881 2131 
Q 2881 2450 2695 2645 
Q 2509 2841 2209 2841 
Q 1884 2841 1681 2658 
Q 1478 2475 1428 2131 
L 2881 2131 
z
" transform="scale(0.015625)"/>
     <path id="DejaVuSans-Bold-18" d="M 678 4666 
L 3669 4666 
L 3669 3781 
L 1638 3781 
L 1638 3059 
Q 1775 3097 1914 3117 
Q 2053 3138 2203 3138 
Q 3056 3138 3531 2711 
Q 4006 2284 4006 1522 
Q 4006 766 3489 337 
Q 2972 -91 2053 -91 
Q 1656 -91 1267 -14 
Q 878 63 494 219 
L 494 1166 
Q 875 947 1217 837 
Q 1559 728 1863 728 
Q 2300 728 2551 942 
Q 2803 1156 2803 1522 
Q 2803 1891 2551 2103 
Q 2300 2316 1863 2316 
Q 1603 2316 1309 2248 
Q 1016 2181 678 2041 
L 678 4666 
z
" transform="scale(0.015625)"/>
     <path id="DejaVuSans-Bold-57" d="M 1759 4494 
L 1759 3500 
L 2913 3500 
L 2913 2700 
L 1759 2700 
L 1759 1216 
Q 1759 972 1856 886 
Q 1953 800 2241 800 
L 2816 800 
L 2816 0 
L 1856 0 
Q 1194 0 917 276 
Q 641 553 641 1216 
L 641 2700 
L 84 2700 
L 84 3500 
L 641 3500 
L 641 4494 
L 1759 4494 
z
" transform="scale(0.015625)"/>
     <path id="DejaVuSans-Bold-5a" d="M 225 3500 
L 1313 3500 
L 1900 1088 
L 2491 3500 
L 3425 3500 
L 4013 1113 
L 4603 3500 
L 5691 3500 
L 4769 0 
L 3547 0 
L 2956 2406 
L 2369 0 
L 1147 0 
L 225 3500 
z
" transform="scale(0.015625)"/>
     <path id="DejaVuSans-Bold-4c" d="M 538 3500 
L 1656 3500 
L 1656 0 
L 538 0 
L 538 3500 
z
M 538 4863 
L 1656 4863 
L 1656 3950 
L 538 3950 
L 538 4863 
z
" transform="scale(0.015625)"/>
     <path id="DejaVuSans-Bold-51" d="M 4056 2131 
L 4056 0 
L 2931 0 
L 2931 347 
L 2931 1631 
Q 2931 2084 2911 2256 
Q 2891 2428 2841 2509 
Q 2775 2619 2662 2680 
Q 2550 2741 2406 2741 
Q 2056 2741 1856 2470 
Q 1656 2200 1656 1722 
L 1656 0 
L 538 0 
L 538 3500 
L 1656 3500 
L 1656 2988 
Q 1909 3294 2193 3439 
Q 2478 3584 2822 3584 
Q 3428 3584 3742 3212 
Q 4056 2841 4056 2131 
z
" transform="scale(0.015625)"/>
     <path id="DejaVuSans-Bold-56" d="M 3272 3391 
L 3272 2541 
Q 2913 2691 2578 2766 
Q 2244 2841 1947 2841 
Q 1628 2841 1473 2761 
Q 1319 2681 1319 2516 
Q 1319 2381 1436 2309 
Q 1553 2238 1856 2203 
L 2053 2175 
Q 2913 2066 3209 1816 
Q 3506 1566 3506 1031 
Q 3506 472 3093 190 
Q 2681 -91 1863 -91 
Q 1516 -91 1145 -36 
Q 775 19 384 128 
L 384 978 
Q 719 816 1070 734 
Q 1422 653 1784 653 
Q 2113 653 2278 743 
Q 2444 834 2444 1013 
Q 2444 1163 2330 1236 
Q 2216 1309 1875 1350 
L 1678 1375 
Q 931 1469 631 1722 
Q 331 1975 331 2491 
Q 331 3047 712 3315 
Q 1094 3584 1881 3584 
Q 2191 3584 2531 3537 
Q 2872 3491 3272 3391 
z
" transform="scale(0.015625)"/>
     <path id="DejaVuSans-Bold-44" d="M 2106 1575 
Q 1756 1575 1579 1456 
Q 1403 1338 1403 1106 
Q 1403 894 1545 773 
Q 1688 653 1941 653 
Q 2256 653 2472 879 
Q 2688 1106 2688 1447 
L 2688 1575 
L 2106 1575 
z
M 3816 1997 
L 3816 0 
L 2688 0 
L 2688 519 
Q 2463 200 2181 54 
Q 1900 -91 1497 -91 
Q 953 -91 614 226 
Q 275 544 275 1050 
Q 275 1666 698 1953 
Q 1122 2241 2028 2241 
L 2688 2241 
L 2688 2328 
Q 2688 2594 2478 2717 
Q 2269 2841 1825 2841 
Q 1466 2841 1156 2769 
Q 847 2697 581 2553 
L 581 3406 
Q 941 3494 1303 3539 
Q 1666 3584 2028 3584 
Q 2975 3584 3395 3211 
Q 3816 2838 3816 1997 
z
" transform="scale(0.015625)"/>
     <path id="DejaVuSans-Bold-46" d="M 3366 3391 
L 3366 2478 
Q 3138 2634 2908 2709 
Q 2678 2784 2431 2784 
Q 1963 2784 1702 2511 
Q 1441 2238 1441 1747 
Q 1441 1256 1702 982 
Q 1963 709 2431 709 
Q 2694 709 2930 787 
Q 3166 866 3366 1019 
L 3366 103 
Q 3103 6 2833 -42 
Q 2563 -91 2291 -91 
Q 1344 -91 809 395 
Q 275 881 275 1747 
Q 275 2613 809 3098 
Q 1344 3584 2291 3584 
Q 2566 3584 2833 3536 
Q 3100 3488 3366 3391 
z
" transform="scale(0.015625)"/>
     <path id="DejaVuSans-Bold-4f" d="M 538 4863 
L 1656 4863 
L 1656 0 
L 538 0 
L 538 4863 
z
" transform="scale(0.015625)"/>
     <path id="DejaVuSans-Bold-52" d="M 2203 2784 
Q 1831 2784 1636 2517 
Q 1441 2250 1441 1747 
Q 1441 1244 1636 976 
Q 1831 709 2203 709 
Q 2569 709 2762 976 
Q 2956 1244 2956 1747 
Q 2956 2250 2762 2517 
Q 2569 2784 2203 2784 
z
M 2203 3584 
Q 3106 3584 3614 3096 
Q 4122 2609 4122 1747 
Q 4122 884 3614 396 
Q 3106 -91 2203 -91 
Q 1297 -91 786 396 
Q 275 884 275 1747 
Q 275 2609 786 3096 
Q 1297 3584 2203 3584 
z
" transform="scale(0.015625)"/>
     <path id="DejaVuSans-Bold-47" d="M 2919 2988 
L 2919 4863 
L 4044 4863 
L 4044 0 
L 2919 0 
L 2919 506 
Q 2688 197 2409 53 
Q 2131 -91 1766 -91 
Q 1119 -91 703 423 
Q 288 938 288 1747 
Q 288 2556 703 3070 
Q 1119 3584 1766 3584 
Q 2128 3584 2408 3439 
Q 2688 3294 2919 2988 
z
M 2181 722 
Q 2541 722 2730 984 
Q 2919 1247 2919 1747 
Q 2919 2247 2730 2509 
Q 2541 2772 2181 2772 
Q 1825 2772 1636 2509 
Q 1447 2247 1447 1747 
Q 1447 1247 1636 984 
Q 1825 722 2181 722 
z
" transform="scale(0.015625)"/>
     <path id="DejaVuSans-Bold-59" d="M 97 3500 
L 1216 3500 
L 2088 1081 
L 2956 3500 
L 4078 3500 
L 2700 0 
L 1472 0 
L 97 3500 
z
" transform="scale(0.015625)"/>
     <path id="DejaVuSans-Bold-53" d="M 1656 506 
L 1656 -1331 
L 538 -1331 
L 538 3500 
L 1656 3500 
L 1656 2988 
Q 1888 3294 2169 3439 
Q 2450 3584 2816 3584 
Q 3463 3584 3878 3070 
Q 4294 2556 4294 1747 
Q 4294 938 3878 423 
Q 3463 -91 2816 -91 
Q 2450 -91 2169 54 
Q 1888 200 1656 506 
z
M 2400 2772 
Q 2041 2772 1848 2508 
Q 1656 2244 1656 1747 
Q 1656 1250 1848 986 
Q 2041 722 2400 722 
Q 2759 722 2948 984 
Q 3138 1247 3138 1747 
Q 3138 2247 2948 2509 
Q 2759 2772 2400 2772 
z
" transform="scale(0.015625)"/>
    </defs>
    <use xlink:href="#DejaVuSans-Bold-37"/>
    <use xlink:href="#DejaVuSans-Bold-4b" transform="translate(68.21875 0)"/>
    <use xlink:href="#DejaVuSans-Bold-48" transform="translate(139.40625 0)"/>
    <use xlink:href="#DejaVuSans-Bold-3" transform="translate(207.234375 0)"/>
    <use xlink:href="#DejaVuSans-Bold-18" transform="translate(242.046875 0)"/>
    <use xlink:href="#DejaVuSans-Bold-2a" transform="translate(311.625 0)"/>
    <use xlink:href="#DejaVuSans-Bold-3" transform="translate(393.703125 0)"/>
    <use xlink:href="#DejaVuSans-Bold-57" transform="translate(428.515625 0)"/>
    <use xlink:href="#DejaVuSans-Bold-5a" transform="translate(476.3125 0)"/>
    <use xlink:href="#DejaVuSans-Bold-4c" transform="translate(568.703125 0)"/>
    <use xlink:href="#DejaVuSans-Bold-51" transform="translate(602.984375 0)"/>
    <use xlink:href="#DejaVuSans-Bold-3" transform="translate(674.171875 0)"/>
    <use xlink:href="#DejaVuSans-Bold-4c" transform="translate(708.984375 0)"/>
    <use xlink:href="#DejaVuSans-Bold-56" transform="translate(743.265625 0)"/>
    <use xlink:href="#DejaVuSans-Bold-3" transform="translate(802.78125 0)"/>
    <use xlink:href="#DejaVuSans-Bold-44" transform="translate(837.59375 0)"/>
    <use xlink:href="#DejaVuSans-Bold-3" transform="translate(905.078125 0)"/>
    <use xlink:href="#DejaVuSans-Bold-46" transform="translate(939.890625 0)"/>
    <use xlink:href="#DejaVuSans-Bold-4f" transform="translate(999.171875 0)"/>
    <use xlink:href="#DejaVuSans-Bold-52" transform="translate(1033.453125 0)"/>
    <use xlink:href="#DejaVuSans-Bold-56" transform="translate(1102.15625 0)"/>
    <use xlink:href="#DejaVuSans-Bold-48" transform="translate(1161.671875 0)"/>
    <use xlink:href="#DejaVuSans-Bold-47" transform="translate(1229.5 0)"/>
    <use xlink:href="#DejaVuSans-Bold-3" transform="translate(1301.078125 0)"/>
    <use xlink:href="#DejaVuSans-Bold-48" transform="translate(1335.890625 0)"/>
    <use xlink:href="#DejaVuSans-Bold-59" transform="translate(1403.71875 0)"/>
    <use xlink:href="#DejaVuSans-Bold-4c" transform="translate(1468.90625 0)"/>
    <use xlink:href="#DejaVuSans-Bold-47" transform="translate(1503.1875 0)"/>
    <use xlink:href="#DejaVuSans-Bold-48" transform="translate(1574.765625 0)"/>
    <use xlink:href="#DejaVuSans-Bold-51" transform="translate(1642.59375 0)"/>
    <use xlink:href="#DejaVuSans-Bold-46" transform="translate(1713.78125 0)"/>
    <use xlink:href="#DejaVuSans-Bold-48" transform="translate(1773.0625 0)"/>
    <use xlink:href="#DejaVuSans-Bold-3" transform="translate(1840.890625 0)"/>
    <use xlink:href="#DejaVuSans-Bold-4f" transform="translate(1875.703125 0)"/>
    <use xlink:href="#DejaVuSans-Bold-52" transform="translate(1909.984375 0)"/>
    <use xlink:href="#DejaVuSans-Bold-52" transform="translate(1978.6875 0)"/>
    <use xlink:href="#DejaVuSans-Bold-53" transform="translate(2047.390625 0)"/>
   </g>
  </g>
  <g id="text_17">
   <!-- Every proposed action is evaluated against the same causal cohort state before it can affect future sessions -->
   <g style="fill: #66788a" transform="translate(31.1994 74.197656) scale(0.11 -0.11)">
    <defs>
     <path id="DejaVuSans-28" d="M 628 4666 
L 3578 4666 
L 3578 4134 
L 1259 4134 
L 1259 2753 
L 3481 2753 
L 3481 2222 
L 1259 2222 
L 1259 531 
L 3634 531 
L 3634 0 
L 628 0 
L 628 4666 
z
" transform="scale(0.015625)"/>
     <path id="DejaVuSans-13ae" d="M 4531 4863 
L 4531 4384 
L 3981 4384 
Q 3672 4384 3551 4259 
Q 3431 4134 3431 3809 
L 3431 3500 
L 4378 3500 
L 4378 3053 
L 3431 3053 
L 3431 0 
L 2853 0 
L 2853 3053 
L 1275 3053 
L 1275 0 
L 697 0 
L 697 3053 
L 147 3053 
L 147 3500 
L 697 3500 
L 697 3744 
Q 697 4328 969 4595 
Q 1241 4863 1831 4863 
L 2375 4863 
L 2375 4384 
L 1825 4384 
Q 1516 4384 1394 4259 
Q 1275 4134 1275 3809 
L 1275 3500 
L 2853 3500 
L 2853 3744 
Q 2853 4328 3125 4595 
Q 3397 4863 3988 4863 
L 4531 4863 
z
" transform="scale(0.015625)"/>
    </defs>
    <use xlink:href="#DejaVuSans-28"/>
    <use xlink:href="#DejaVuSans-59" transform="translate(63.1875 0)"/>
    <use xlink:href="#DejaVuSans-48" transform="translate(122.375 0)"/>
    <use xlink:href="#DejaVuSans-55" transform="translate(183.90625 0)"/>
    <use xlink:href="#DejaVuSans-5c" transform="translate(225.015625 0)"/>
    <use xlink:href="#DejaVuSans-3" transform="translate(284.203125 0)"/>
    <use xlink:href="#DejaVuSans-53" transform="translate(315.984375 0)"/>
    <use xlink:href="#DejaVuSans-55" transform="translate(379.46875 0)"/>
    <use xlink:href="#DejaVuSans-52" transform="translate(418.375 0)"/>
    <use xlink:href="#DejaVuSans-53" transform="translate(479.5625 0)"/>
    <use xlink:href="#DejaVuSans-52" transform="translate(543.046875 0)"/>
    <use xlink:href="#DejaVuSans-56" transform="translate(604.234375 0)"/>
    <use xlink:href="#DejaVuSans-48" transform="translate(656.328125 0)"/>
    <use xlink:href="#DejaVuSans-47" transform="translate(717.859375 0)"/>
    <use xlink:href="#DejaVuSans-3" transform="translate(781.34375 0)"/>
    <use xlink:href="#DejaVuSans-44" transform="translate(813.125 0)"/>
    <use xlink:href="#DejaVuSans-46" transform="translate(874.40625 0)"/>
    <use xlink:href="#DejaVuSans-57" transform="translate(929.390625 0)"/>
    <use xlink:href="#DejaVuSans-4c" transform="translate(968.59375 0)"/>
    <use xlink:href="#DejaVuSans-52" transform="translate(996.375 0)"/>
    <use xlink:href="#DejaVuSans-51" transform="translate(1057.5625 0)"/>
    <use xlink:href="#DejaVuSans-3" transform="translate(1120.9375 0)"/>
    <use xlink:href="#DejaVuSans-4c" transform="translate(1152.71875 0)"/>
    <use xlink:href="#DejaVuSans-56" transform="translate(1180.5 0)"/>
    <use xlink:href="#DejaVuSans-3" transform="translate(1232.59375 0)"/>
    <use xlink:href="#DejaVuSans-48" transform="translate(1264.375 0)"/>
    <use xlink:href="#DejaVuSans-59" transform="translate(1325.90625 0)"/>
    <use xlink:href="#DejaVuSans-44" transform="translate(1385.09375 0)"/>
    <use xlink:href="#DejaVuSans-4f" transform="translate(1446.375 0)"/>
    <use xlink:href="#DejaVuSans-58" transform="translate(1474.15625 0)"/>
    <use xlink:href="#DejaVuSans-44" transform="translate(1537.53125 0)"/>
    <use xlink:href="#DejaVuSans-57" transform="translate(1598.8125 0)"/>
    <use xlink:href="#DejaVuSans-48" transform="translate(1638.015625 0)"/>
    <use xlink:href="#DejaVuSans-47" transform="translate(1699.546875 0)"/>
    <use xlink:href="#DejaVuSans-3" transform="translate(1763.03125 0)"/>
    <use xlink:href="#DejaVuSans-44" transform="translate(1794.8125 0)"/>
    <use xlink:href="#DejaVuSans-4a" transform="translate(1856.09375 0)"/>
    <use xlink:href="#DejaVuSans-44" transform="translate(1919.578125 0)"/>
    <use xlink:href="#DejaVuSans-4c" transform="translate(1980.859375 0)"/>
    <use xlink:href="#DejaVuSans-51" transform="translate(2008.640625 0)"/>
    <use xlink:href="#DejaVuSans-56" transform="translate(2072.015625 0)"/>
    <use xlink:href="#DejaVuSans-57" transform="translate(2124.109375 0)"/>
    <use xlink:href="#DejaVuSans-3" transform="translate(2163.3125 0)"/>
    <use xlink:href="#DejaVuSans-57" transform="translate(2195.09375 0)"/>
    <use xlink:href="#DejaVuSans-4b" transform="translate(2234.296875 0)"/>
    <use xlink:href="#DejaVuSans-48" transform="translate(2297.671875 0)"/>
    <use xlink:href="#DejaVuSans-3" transform="translate(2359.203125 0)"/>
    <use xlink:href="#DejaVuSans-56" transform="translate(2390.984375 0)"/>
    <use xlink:href="#DejaVuSans-44" transform="translate(2443.078125 0)"/>
    <use xlink:href="#DejaVuSans-50" transform="translate(2504.359375 0)"/>
    <use xlink:href="#DejaVuSans-48" transform="translate(2601.765625 0)"/>
    <use xlink:href="#DejaVuSans-3" transform="translate(2663.296875 0)"/>
    <use xlink:href="#DejaVuSans-46" transform="translate(2695.078125 0)"/>
    <use xlink:href="#DejaVuSans-44" transform="translate(2750.0625 0)"/>
    <use xlink:href="#DejaVuSans-58" transform="translate(2811.34375 0)"/>
    <use xlink:href="#DejaVuSans-56" transform="translate(2874.71875 0)"/>
    <use xlink:href="#DejaVuSans-44" transform="translate(2926.8125 0)"/>
    <use xlink:href="#DejaVuSans-4f" transform="translate(2988.09375 0)"/>
    <use xlink:href="#DejaVuSans-3" transform="translate(3015.875 0)"/>
    <use xlink:href="#DejaVuSans-46" transform="translate(3047.65625 0)"/>
    <use xlink:href="#DejaVuSans-52" transform="translate(3102.640625 0)"/>
    <use xlink:href="#DejaVuSans-4b" transform="translate(3163.828125 0)"/>
    <use xlink:href="#DejaVuSans-52" transform="translate(3227.203125 0)"/>
    <use xlink:href="#DejaVuSans-55" transform="translate(3288.390625 0)"/>
    <use xlink:href="#DejaVuSans-57" transform="translate(3329.5 0)"/>
    <use xlink:href="#DejaVuSans-3" transform="translate(3368.703125 0)"/>
    <use xlink:href="#DejaVuSans-56" transform="translate(3400.484375 0)"/>
    <use xlink:href="#DejaVuSans-57" transform="translate(3452.578125 0)"/>
    <use xlink:href="#DejaVuSans-44" transform="translate(3491.78125 0)"/>
    <use xlink:href="#DejaVuSans-57" transform="translate(3553.0625 0)"/>
    <use xlink:href="#DejaVuSans-48" transform="translate(3592.265625 0)"/>
    <use xlink:href="#DejaVuSans-3" transform="translate(3653.796875 0)"/>
    <use xlink:href="#DejaVuSans-45" transform="translate(3685.578125 0)"/>
    <use xlink:href="#DejaVuSans-48" transform="translate(3749.0625 0)"/>
    <use xlink:href="#DejaVuSans-49" transform="translate(3810.59375 0)"/>
    <use xlink:href="#DejaVuSans-52" transform="translate(3845.796875 0)"/>
    <use xlink:href="#DejaVuSans-55" transform="translate(3906.984375 0)"/>
    <use xlink:href="#DejaVuSans-48" transform="translate(3945.890625 0)"/>
    <use xlink:href="#DejaVuSans-3" transform="translate(4007.421875 0)"/>
    <use xlink:href="#DejaVuSans-4c" transform="translate(4039.203125 0)"/>
    <use xlink:href="#DejaVuSans-57" transform="translate(4066.984375 0)"/>
    <use xlink:href="#DejaVuSans-3" transform="translate(4106.1875 0)"/>
    <use xlink:href="#DejaVuSans-46" transform="translate(4137.96875 0)"/>
    <use xlink:href="#DejaVuSans-44" transform="translate(4192.953125 0)"/>
    <use xlink:href="#DejaVuSans-51" transform="translate(4254.234375 0)"/>
    <use xlink:href="#DejaVuSans-3" transform="translate(4317.609375 0)"/>
    <use xlink:href="#DejaVuSans-44" transform="translate(4349.390625 0)"/>
    <use xlink:href="#DejaVuSans-13ae" transform="translate(4410.671875 0)"/>
    <use xlink:href="#DejaVuSans-48" transform="translate(4479.5625 0)"/>
    <use xlink:href="#DejaVuSans-46" transform="translate(4541.09375 0)"/>
    <use xlink:href="#DejaVuSans-57" transform="translate(4596.078125 0)"/>
    <use xlink:href="#DejaVuSans-3" transform="translate(4635.28125 0)"/>
    <use xlink:href="#DejaVuSans-49" transform="translate(4667.0625 0)"/>
    <use xlink:href="#DejaVuSans-58" transform="translate(4702.265625 0)"/>
    <use xlink:href="#DejaVuSans-57" transform="translate(4765.640625 0)"/>
    <use xlink:href="#DejaVuSans-58" transform="translate(4804.84375 0)"/>
    <use xlink:href="#DejaVuSans-55" transform="translate(4868.21875 0)"/>
    <use xlink:href="#DejaVuSans-48" transform="translate(4907.125 0)"/>
    <use xlink:href="#DejaVuSans-3" transform="translate(4968.65625 0)"/>
    <use xlink:href="#DejaVuSans-56" transform="translate(5000.4375 0)"/>
    <use xlink:href="#DejaVuSans-48" transform="translate(5052.53125 0)"/>
    <use xlink:href="#DejaVuSans-56" transform="translate(5114.0625 0)"/>
    <use xlink:href="#DejaVuSans-56" transform="translate(5166.15625 0)"/>
    <use xlink:href="#DejaVuSans-4c" transform="translate(5218.25 0)"/>
    <use xlink:href="#DejaVuSans-52" transform="translate(5246.03125 0)"/>
    <use xlink:href="#DejaVuSans-51" transform="translate(5307.21875 0)"/>
    <use xlink:href="#DejaVuSans-56" transform="translate(5370.59375 0)"/>
   </g>
  </g>
  <g id="text_18">
   <!-- ACTUATION BOUNDARY  ·  EXISTING SESSIONS STAY PUT  ·  ONLY FUTURE SESSIONS CAN MOVE -->
   <g style="fill: #0b1f33" transform="translate(146.731106 506.197656) scale(0.115 -0.115)">
    <defs>
     <path id="DejaVuSans-Bold-38" d="M 588 4666 
L 1791 4666 
L 1791 1869 
Q 1791 1291 1980 1042 
Q 2169 794 2597 794 
Q 3028 794 3217 1042 
Q 3406 1291 3406 1869 
L 3406 4666 
L 4609 4666 
L 4609 1869 
Q 4609 878 4112 393 
Q 3616 -91 2597 -91 
Q 1581 -91 1084 393 
Q 588 878 588 1869 
L 588 4666 
z
" transform="scale(0.015625)"/>
     <path id="DejaVuSans-Bold-79" d="M 653 2828 
L 1778 2828 
L 1778 1619 
L 653 1619 
L 653 2828 
z
" transform="scale(0.015625)"/>
     <path id="DejaVuSans-Bold-3b" d="M 3188 2381 
L 4806 0 
L 3553 0 
L 2463 1594 
L 1381 0 
L 122 0 
L 1741 2381 
L 184 4666 
L 1441 4666 
L 2463 3163 
L 3481 4666 
L 4744 4666 
L 3188 2381 
z
" transform="scale(0.015625)"/>
    </defs>
    <use xlink:href="#DejaVuSans-Bold-24"/>
    <use xlink:href="#DejaVuSans-Bold-26" transform="translate(77.390625 0)"/>
    <use xlink:href="#DejaVuSans-Bold-37" transform="translate(150.78125 0)"/>
    <use xlink:href="#DejaVuSans-Bold-38" transform="translate(219 0)"/>
    <use xlink:href="#DejaVuSans-Bold-24" transform="translate(297.125 0)"/>
    <use xlink:href="#DejaVuSans-Bold-37" transform="translate(366.75 0)"/>
    <use xlink:href="#DejaVuSans-Bold-2c" transform="translate(434.96875 0)"/>
    <use xlink:href="#DejaVuSans-Bold-32" transform="translate(472.171875 0)"/>
    <use xlink:href="#DejaVuSans-Bold-31" transform="translate(557.1875 0)"/>
    <use xlink:href="#DejaVuSans-Bold-3" transform="translate(640.875 0)"/>
    <use xlink:href="#DejaVuSans-Bold-25" transform="translate(675.6875 0)"/>
    <use xlink:href="#DejaVuSans-Bold-32" transform="translate(751.90625 0)"/>
    <use xlink:href="#DejaVuSans-Bold-38" transform="translate(836.921875 0)"/>
    <use xlink:href="#DejaVuSans-Bold-31" transform="translate(918.125 0)"/>
    <use xlink:href="#DejaVuSans-Bold-27" transform="translate(1001.8125 0)"/>
    <use xlink:href="#DejaVuSans-Bold-24" transform="translate(1084.828125 0)"/>
    <use xlink:href="#DejaVuSans-Bold-35" transform="translate(1162.21875 0)"/>
    <use xlink:href="#DejaVuSans-Bold-3c" transform="translate(1233.75 0)"/>
    <use xlink:href="#DejaVuSans-Bold-3" transform="translate(1306.15625 0)"/>
    <use xlink:href="#DejaVuSans-Bold-3" transform="translate(1340.96875 0)"/>
    <use xlink:href="#DejaVuSans-Bold-79" transform="translate(1375.78125 0)"/>
    <use xlink:href="#DejaVuSans-Bold-3" transform="translate(1413.765625 0)"/>
    <use xlink:href="#DejaVuSans-Bold-3" transform="translate(1448.578125 0)"/>
    <use xlink:href="#DejaVuSans-Bold-28" transform="translate(1483.390625 0)"/>
    <use xlink:href="#DejaVuSans-Bold-3b" transform="translate(1551.703125 0)"/>
    <use xlink:href="#DejaVuSans-Bold-2c" transform="translate(1628.796875 0)"/>
    <use xlink:href="#DejaVuSans-Bold-36" transform="translate(1666 0)"/>
    <use xlink:href="#DejaVuSans-Bold-37" transform="translate(1738.015625 0)"/>
    <use xlink:href="#DejaVuSans-Bold-2c" transform="translate(1806.234375 0)"/>
    <use xlink:href="#DejaVuSans-Bold-31" transform="translate(1843.4375 0)"/>
    <use xlink:href="#DejaVuSans-Bold-2a" transform="translate(1927.125 0)"/>
    <use xlink:href="#DejaVuSans-Bold-3" transform="translate(2009.203125 0)"/>
    <use xlink:href="#DejaVuSans-Bold-36" transform="translate(2044.015625 0)"/>
    <use xlink:href="#DejaVuSans-Bold-28" transform="translate(2116.03125 0)"/>
    <use xlink:href="#DejaVuSans-Bold-36" transform="translate(2184.34375 0)"/>
    <use xlink:href="#DejaVuSans-Bold-36" transform="translate(2251.875 0)"/>
    <use xlink:href="#DejaVuSans-Bold-2c" transform="translate(2323.890625 0)"/>
    <use xlink:href="#DejaVuSans-Bold-32" transform="translate(2361.09375 0)"/>
    <use xlink:href="#DejaVuSans-Bold-31" transform="translate(2446.109375 0)"/>
    <use xlink:href="#DejaVuSans-Bold-36" transform="translate(2529.796875 0)"/>
    <use xlink:href="#DejaVuSans-Bold-3" transform="translate(2601.8125 0)"/>
    <use xlink:href="#DejaVuSans-Bold-36" transform="translate(2636.625 0)"/>
    <use xlink:href="#DejaVuSans-Bold-37" transform="translate(2708.640625 0)"/>
    <use xlink:href="#DejaVuSans-Bold-24" transform="translate(2769.09375 0)"/>
    <use xlink:href="#DejaVuSans-Bold-3c" transform="translate(2836.921875 0)"/>
    <use xlink:href="#DejaVuSans-Bold-3" transform="translate(2909.328125 0)"/>
    <use xlink:href="#DejaVuSans-Bold-33" transform="translate(2944.140625 0)"/>
    <use xlink:href="#DejaVuSans-Bold-38" transform="translate(3017.4375 0)"/>
    <use xlink:href="#DejaVuSans-Bold-37" transform="translate(3098.640625 0)"/>
    <use xlink:href="#DejaVuSans-Bold-3" transform="translate(3166.859375 0)"/>
    <use xlink:href="#DejaVuSans-Bold-3" transform="translate(3201.671875 0)"/>
    <use xlink:href="#DejaVuSans-Bold-79" transform="translate(3236.484375 0)"/>
    <use xlink:href="#DejaVuSans-Bold-3" transform="translate(3274.46875 0)"/>
    <use xlink:href="#DejaVuSans-Bold-3" transform="translate(3309.28125 0)"/>
    <use xlink:href="#DejaVuSans-Bold-32" transform="translate(3344.09375 0)"/>
    <use xlink:href="#DejaVuSans-Bold-31" transform="translate(3429.109375 0)"/>
    <use xlink:href="#DejaVuSans-Bold-2f" transform="translate(3512.796875 0)"/>
    <use xlink:href="#DejaVuSans-Bold-3c" transform="translate(3560.9375 0)"/>
    <use xlink:href="#DejaVuSans-Bold-3" transform="translate(3633.34375 0)"/>
    <use xlink:href="#DejaVuSans-Bold-29" transform="translate(3668.15625 0)"/>
    <use xlink:href="#DejaVuSans-Bold-38" transform="translate(3736.46875 0)"/>
    <use xlink:href="#DejaVuSans-Bold-37" transform="translate(3817.671875 0)"/>
    <use xlink:href="#DejaVuSans-Bold-38" transform="translate(3885.890625 0)"/>
    <use xlink:href="#DejaVuSans-Bold-35" transform="translate(3967.09375 0)"/>
    <use xlink:href="#DejaVuSans-Bold-28" transform="translate(4044.09375 0)"/>
    <use xlink:href="#DejaVuSans-Bold-3" transform="translate(4112.40625 0)"/>
    <use xlink:href="#DejaVuSans-Bold-36" transform="translate(4147.21875 0)"/>
    <use xlink:href="#DejaVuSans-Bold-28" transform="translate(4219.234375 0)"/>
    <use xlink:href="#DejaVuSans-Bold-36" transform="translate(4287.546875 0)"/>
    <use xlink:href="#DejaVuSans-Bold-36" transform="translate(4355.078125 0)"/>
    <use xlink:href="#DejaVuSans-Bold-2c" transform="translate(4427.09375 0)"/>
    <use xlink:href="#DejaVuSans-Bold-32" transform="translate(4464.296875 0)"/>
    <use xlink:href="#DejaVuSans-Bold-31" transform="translate(4549.3125 0)"/>
    <use xlink:href="#DejaVuSans-Bold-36" transform="translate(4633 0)"/>
    <use xlink:href="#DejaVuSans-Bold-3" transform="translate(4705.015625 0)"/>
    <use xlink:href="#DejaVuSans-Bold-26" transform="translate(4739.828125 0)"/>
    <use xlink:href="#DejaVuSans-Bold-24" transform="translate(4813.21875 0)"/>
    <use xlink:href="#DejaVuSans-Bold-31" transform="translate(4890.609375 0)"/>
    <use xlink:href="#DejaVuSans-Bold-3" transform="translate(4974.296875 0)"/>
    <use xlink:href="#DejaVuSans-Bold-30" transform="translate(5009.109375 0)"/>
    <use xlink:href="#DejaVuSans-Bold-32" transform="translate(5108.625 0)"/>
    <use xlink:href="#DejaVuSans-Bold-39" transform="translate(5190.953125 0)"/>
    <use xlink:href="#DejaVuSans-Bold-28" transform="translate(5268.34375 0)"/>
   </g>
  </g>
 </g>
 <defs>
  <clipPath id="p37743df068">
   <rect x="7.2" y="103.897656" width="892.77768" height="378"/>
  </clipPath>
 </defs>
</svg>
